<svg width="48" height="48" viewBox="0 0 48 48" fill="none" xmlns="http://www.w3.org/2000/svg">
<path d="M36.1873 1.03238C33.4803 0.407622 29.0305 0 24 0C18.9695 0 14.5197 0.407622 11.8127 1.03238C6.41533 2.16497 2.16497 6.41533 1.03238 11.8127C0.407622 14.5197 0 18.9695 0 24C0 29.0305 0.407622 33.4803 1.03238 36.1873C2.16497 41.5847 6.41533 45.835 11.8127 46.9676C14.5197 47.5924 18.9695 48 24 48C29.0305 48 33.4803 47.5924 36.1873 46.9676C41.5847 45.835 45.835 41.5847 46.9676 36.1873C47.5924 33.4803 48 29.0305 48 24C48 18.9695 47.5924 14.5197 46.9676 11.8127C45.835 6.41533 41.5847 2.16497 36.1873 1.03238Z" fill="white"/>
<path fill-rule="evenodd" clip-rule="evenodd" d="M31.0293 34.3207C31.3072 34.6564 31.6809 34.9037 31.9602 35.2498C32.3324 35.7104 32.927 37.0559 32.9318 37.1796C32.9312 37.4865 32.6844 37.4693 32.4424 37.6084C32.3268 37.6511 32.2595 37.7718 32.1474 37.5838C32.1197 37.5615 32.0863 37.5473 32.051 37.5428C32.0157 37.5384 31.9799 37.5438 31.9475 37.5586C31.8784 37.5888 31.8843 37.6941 31.8929 37.7988C31.898 37.8643 31.8579 37.9275 31.8001 37.9456C31.5984 38.0085 31.3876 38.0233 31.1601 37.9557C30.981 37.9023 30.8526 37.8967 30.7998 37.6161L30.793 37.5924C30.4712 36.7264 31.131 37.2285 29.8585 34.9622L29.8122 34.8465C29.7055 34.4491 29.4801 34.0909 29.1195 33.8723C28.8961 33.7373 28.7227 33.5333 28.6254 33.291C28.397 32.7326 28.0011 32.3839 27.4887 32.1789C27.1533 32.0455 26.811 31.926 26.4759 31.7851C25.7143 31.466 24.8128 30.8877 24.1538 29.8901C24.126 29.8468 24.0915 29.8041 24.0657 29.7536C24.0106 29.6445 23.5349 29.0736 23.644 29.1125C24.6432 29.5297 26.9581 29.9378 28.2799 30.0816C28.4768 30.103 28.6553 30.2255 28.7271 30.4099C28.7375 30.4366 28.8365 30.6051 28.8552 30.6335C29.2586 31.2673 29.2823 31.3661 29.4475 31.5917C29.7099 31.9515 30.0691 32.2836 30.1304 32.7368C30.2262 33.4441 30.656 33.8696 31.029 34.3207H31.0293ZM41.2732 25.7622C41.2521 25.7337 41.189 25.6979 41.194 25.6258C41.2115 25.385 41.0899 25.4591 40.9997 25.519C40.689 25.7266 40.2827 25.8008 40.1842 26.3186C40.162 26.4333 40.0534 26.4751 39.9683 26.5262C39.1608 27.0048 38.2708 26.4345 38.0534 25.2711C37.9404 24.6682 37.7912 24.0789 37.5507 23.5288C37.4211 23.2322 37.0415 22.8381 36.8559 22.5279C36.8249 22.4768 36.8075 22.4186 36.8055 22.3589C36.7963 22.0392 36.6602 21.3049 35.7918 20.7992L35.7725 20.7874C34.7076 20.0128 32.4161 19.2141 31.1865 18.8419C30.7173 18.7117 30.5916 19.0139 30.58 19.2043C30.578 19.2408 30.583 19.2767 30.5928 19.312C30.6165 19.398 30.6681 19.573 30.6687 19.5783C30.9599 20.6895 31.3345 22.2296 31.1195 22.1691C30.8899 22.1053 30.3208 18.8903 28.9777 17.9653L28.9522 17.9448C28.0759 17.1343 26.2559 16.7535 25.6423 16.6251C25.5621 16.6088 25.4907 16.5639 25.4412 16.4988C25.0803 16.0187 24.5159 15.8722 23.6399 15.7295C23.3267 15.6777 23.0125 15.6322 22.6974 15.5931C22.646 15.5869 22.5966 15.5693 22.5527 15.5418C22.5089 15.5142 22.4717 15.4772 22.4438 15.4336C22.416 15.3899 22.3981 15.3406 22.3915 15.2892C22.385 15.2378 22.3899 15.1857 22.4059 15.1364L22.4071 15.1328C22.4352 15.045 22.4355 14.868 22.3786 14.8452C22.3131 14.8191 22.1078 14.9107 21.9347 14.93C21.819 14.9427 21.6855 14.8683 21.6793 14.8647C21.6369 14.8398 21.7395 14.927 21.695 14.8855C21.1891 14.4057 22.4507 13.9632 22.1725 13.9439C22.0772 13.9379 21.9818 13.9341 21.8863 13.9326C21.5401 13.9254 21.1939 13.9461 20.851 13.9943C20.7724 14.0053 20.7226 13.9312 20.7294 13.8644C20.7306 13.8478 20.736 13.8317 20.7451 13.8177C20.7542 13.8037 20.7666 13.7923 20.7813 13.7844C22.4409 12.8828 23.0643 11.8523 23.0643 11.8523C23.0643 11.8523 23.5693 11.0323 22.397 10.4898C22.1734 10.3863 21.889 10.2926 21.5272 10.2158C20.5129 10.0008 19.6022 9.66748 18.8996 9.36173C18.6773 9.26484 18.4574 9.16249 18.2401 9.05478C18.2327 9.05123 18.1858 9.02809 18.1473 9.01682C18.0375 8.97531 17.9417 9.00793 17.8851 9.14494C17.792 9.37151 18.1043 9.48777 18.2677 9.6144C18.9643 10.1544 19.7543 10.4993 20.4753 10.967C20.9299 11.2618 20.9429 11.3923 20.5263 11.6788C19.9213 12.0945 19.2374 12.354 18.5491 12.6129C18.5145 12.6259 18.4778 12.633 18.4409 12.6337C18.0779 12.3938 17.7131 12.346 17.3771 12.4083C16.7736 12.4329 16.2086 12.7701 15.9014 13.3368C15.8697 13.3945 15.8219 13.4418 15.7639 13.473C15.706 13.5041 15.6402 13.5178 15.5746 13.5124C15.5497 13.5103 15.5248 13.5095 15.4998 13.51C15.4558 13.5027 15.4109 13.5008 15.3664 13.5044C13.8815 13.6186 13.5858 14.2283 13.5277 14.489C13.5204 14.5262 13.5042 14.5611 13.4807 14.5908C13.4571 14.6206 13.4268 14.6442 13.3922 14.6598C10.1979 16.0071 7.94818 14.9973 7.19462 14.5536L7.17801 14.5439C7.08133 14.4863 6.96745 14.5783 7.00867 14.6826C7.71835 16.4887 11.3797 16.6296 12.402 16.6322H12.5194C12.5962 16.6317 12.6582 16.7099 12.6327 16.7835C12.3705 17.5371 12.0568 18.0305 11.8592 18.3022C11.7614 18.4365 11.6855 18.5851 11.635 18.7441L11.614 18.8093C11.5251 19.0873 11.5285 19.3866 11.6238 19.6625C11.6472 19.7298 11.6487 19.8028 11.6297 19.8713C11.6206 19.9019 11.6141 19.9333 11.6104 19.965C11.6104 19.965 11.6015 20.0353 11.6149 20.1154C11.8062 21.2847 12.4438 21.5362 12.4438 21.5362C12.4438 21.5362 12.5511 21.6017 12.9705 21.5816C13.9678 21.5344 15.644 21.296 16.0601 21.2675C16.1045 21.2648 16.1487 21.269 16.1917 21.2803L16.2184 21.2874C16.2496 21.2954 16.2786 21.3061 16.3065 21.3206C17.7478 22.0679 19.8958 24.3965 20.6651 25.7432C20.7084 25.8248 20.7531 25.9052 20.7985 25.9849C21.16 26.673 21.5405 27.1875 22.158 27.6439C22.2268 27.6949 22.4228 27.8405 22.7398 28.0214C23.1378 28.2477 23.4605 28.3794 23.7206 28.4844C24.4198 28.7661 24.9975 28.9126 25.4199 29.0197C25.6016 29.0653 25.7206 29.092 25.7962 29.108C26.1218 29.1765 26.4172 29.2172 26.7876 29.2658C28.182 29.4485 28.8285 29.3755 29.083 29.8192C29.1008 29.8405 29.1503 30.0099 29.166 30.0692L29.172 30.0891C29.5148 31.0885 29.7316 31.2053 29.8864 31.6638C29.9596 31.8794 30.0732 31.9995 30.2695 32.0582C30.578 32.1502 30.8526 32.3207 30.978 32.6555C31.2669 33.426 31.8229 34.0221 32.543 34.2225C33.3369 34.4438 33.7005 34.3738 34.177 33.7128C34.3559 33.4654 34.3662 33.2353 34.2209 32.9779C33.9362 32.4743 33.5139 32.2335 32.9955 32.1694C32.7476 32.1392 32.5115 32.0137 32.4777 31.7593C32.4214 31.3355 32.2013 31.087 31.9469 30.8251C31.6957 30.5671 31.7559 30.2044 32.0379 30.038C32.1121 29.9945 32.9599 29.3221 33.3043 29.1493C33.427 29.0861 34.1584 28.8296 34.1818 28.3162C34.0759 27.0893 34.2755 26.2145 34.3683 26.2225C34.4214 26.2272 34.3259 26.63 34.4899 27.3957C34.4985 27.4336 34.5095 27.4704 34.5222 27.5066V27.5075C34.6741 28.3906 35.7248 29.7771 36.2423 30.3658C36.2684 30.3954 36.288 30.4286 36.3016 30.4654C36.4066 30.7391 36.5439 30.9912 36.7147 31.2293C36.7829 31.3245 36.8571 31.4962 36.8769 31.6119C37.043 32.5983 37.5131 33.4672 37.6083 34.4714C37.6444 34.853 37.7304 35.3174 37.6791 35.4889C37.6673 35.528 37.6584 35.5677 37.6622 35.6081C37.6866 35.8785 37.7729 36.4803 37.8758 36.5325C37.9855 36.5876 38.4997 36.6917 38.7325 36.4322C38.7508 36.4097 38.7618 36.382 38.764 36.353C38.809 35.9207 38.9846 36.1075 39.0742 36.2249C39.0865 36.2421 39.1043 36.2546 39.1246 36.2605C39.1449 36.2664 39.1666 36.2654 39.1863 36.2576C39.4013 36.1766 39.4988 36.0891 39.6296 35.9343C39.6461 35.9147 39.6571 35.8912 39.6617 35.8661C39.7316 35.496 39.7483 35.1318 39.5757 34.7884C39.4214 34.4811 39.2352 34.2062 39.0329 33.9423C38.549 33.3088 38.2797 32.5929 38.4707 31.6952C38.5537 31.305 38.4722 30.9455 38.2557 30.6463C38.1053 30.4387 38.0875 30.2459 38.1421 29.9657C38.307 29.1175 38.3615 28.2554 38.2723 27.3918C38.2583 27.259 38.1851 27.1119 38.3019 27.0075C38.4137 26.9072 38.5312 27.0015 38.6361 27.0529C39.1578 27.3079 39.6581 27.2326 40.1436 26.9236C40.2563 26.8518 40.363 26.7797 40.4986 26.7797C41.0576 26.7803 41.3189 26.4129 41.3574 26.1709C41.3722 26.0775 41.361 25.8805 41.2732 25.7619" fill="#EF6A25"/>
</svg>
