<svg width="48" height="48" viewBox="0 0 48 48" fill="none" xmlns="http://www.w3.org/2000/svg">
<path d="M36.1873 1.03238C33.4803 0.407622 29.0305 0 24 0C18.9695 0 14.5197 0.407622 11.8127 1.03238C6.41533 2.16497 2.16497 6.41533 1.03238 11.8127C0.407622 14.5197 0 18.9695 0 24C0 29.0305 0.407622 33.4803 1.03238 36.1873C2.16497 41.5847 6.41533 45.835 11.8127 46.9676C14.5197 47.5924 18.9695 48 24 48C29.0305 48 33.4803 47.5924 36.1873 46.9676C41.5847 45.835 45.835 41.5847 46.9676 36.1873C47.5924 33.4803 48 29.0305 48 24C48 18.9695 47.5924 14.5197 46.9676 11.8127C45.835 6.41533 41.5847 2.16497 36.1873 1.03238Z" fill="white"/>
<g clip-path="url(#clip0_747_12507)">
<path fill-rule="evenodd" clip-rule="evenodd" d="M21.2553 29.4419L24.9593 33.3779L27.8553 28.7059L35.5353 27.8659L34.2953 14.3779L12.1113 16.8259L13.3593 30.3139L21.2553 29.4419Z" fill="#1972F5"/>
</g>
<defs>
<clipPath id="clip0_747_12507">
<rect width="24" height="19.2" fill="white" transform="translate(12 14.25)"/>
</clipPath>
</defs>
</svg>
