<svg width="48" height="48" viewBox="0 0 48 48" fill="none" xmlns="http://www.w3.org/2000/svg">
<path d="M36.1873 1.03238C33.4803 0.407622 29.0305 0 24 0C18.9695 0 14.5197 0.407622 11.8127 1.03238C6.41533 2.16497 2.16497 6.41533 1.03238 11.8127C0.407622 14.5197 0 18.9695 0 24C0 29.0305 0.407622 33.4803 1.03238 36.1873C2.16497 41.5847 6.41533 45.835 11.8127 46.9676C14.5197 47.5924 18.9695 48 24 48C29.0305 48 33.4803 47.5924 36.1873 46.9676C41.5847 45.835 45.835 41.5847 46.9676 36.1873C47.5924 33.4803 48 29.0305 48 24C48 18.9695 47.5924 14.5197 46.9676 11.8127C45.835 6.41533 41.5847 2.16497 36.1873 1.03238Z" fill="white"/>
<path d="M36.1873 1.03238C33.4803 0.407622 29.0305 0 24 0C18.9695 0 14.5197 0.407622 11.8127 1.03238C6.41533 2.16497 2.16497 6.41533 1.03238 11.8127C0.407622 14.5197 0 18.9695 0 24C0 29.0305 0.407622 33.4803 1.03238 36.1873C2.16497 41.5847 6.41533 45.835 11.8127 46.9676C14.5197 47.5924 18.9695 48 24 48C29.0305 48 33.4803 47.5924 36.1873 46.9676C41.5847 45.835 45.835 41.5847 46.9676 36.1873C47.5924 33.4803 48 29.0305 48 24C48 18.9695 47.5924 14.5197 46.9676 11.8127C45.835 6.41533 41.5847 2.16497 36.1873 1.03238Z" fill="white"/>
<path d="M31.9008 25.5117C29.546 28.1805 26.4455 28.8673 24.228 28.8673C18.1251 28.8673 14.7891 24.9034 14.7891 20.0564C14.7891 15.0523 18.5764 11.0884 23.8748 11.0884C28.4275 11.0884 32.8035 14.3459 32.8035 21.1357H19.538C19.6361 23.255 21.5396 24.8249 24.5812 24.8249C26.2885 24.8249 27.9761 23.9222 29.1339 22.8037L31.9008 25.5117ZM19.6361 18.1333H27.878C27.564 15.9354 25.4054 15.1112 23.7963 15.1112C22.2657 15.1112 20.2248 15.8373 19.6361 18.1333Z" fill="black"/>
<path d="M23.5819 36.9121C20.344 36.9121 17.2631 36.1271 14.4766 34.5572L16.5174 30.9072C18.7349 32.1435 21.1878 32.7715 23.7781 32.7323H23.7977H23.8174C26.4077 32.7519 28.841 32.1435 31.0781 30.9072L33.1189 34.5376C30.2539 36.1467 27.1338 36.9317 23.7977 36.8925C23.7193 36.9121 23.6604 36.9121 23.5819 36.9121Z" fill="#8849FF"/>
</svg>
