<svg width="48" height="48" viewBox="0 0 48 48" fill="none" xmlns="http://www.w3.org/2000/svg">
<path d="M36.1873 1.03238C33.4803 0.407622 29.0305 0 24 0C18.9695 0 14.5197 0.407622 11.8127 1.03238C6.41533 2.16497 2.16497 6.41533 1.03238 11.8127C0.407622 14.5197 0 18.9695 0 24C0 29.0305 0.407622 33.4803 1.03238 36.1873C2.16497 41.5847 6.41533 45.835 11.8127 46.9676C14.5197 47.5924 18.9695 48 24 48C29.0305 48 33.4803 47.5924 36.1873 46.9676C41.5847 45.835 45.835 41.5847 46.9676 36.1873C47.5924 33.4803 48 29.0305 48 24C48 18.9695 47.5924 14.5197 46.9676 11.8127C45.835 6.41533 41.5847 2.16497 36.1873 1.03238Z" fill="#EE3071"/>
<path d="M32.1576 22.9718C33.2798 19.814 34.5513 16.2361 36.1651 12.8576L37 11.1097L35.1484 10.6959C28.7386 9.26443 22.9026 10.0814 20.2815 12.7779C19.1374 13.9549 18.6862 15.446 19.0114 16.9776C19.4206 18.903 20.9042 20.2241 22.8836 20.4243C25.2453 20.6646 28.4888 19.2754 30.0239 15.6618L27.3048 14.443C26.4141 16.5397 24.5131 17.5262 23.175 17.3914C22.1132 17.2833 21.9604 16.5642 21.9101 16.3275C21.8361 15.9795 21.8231 15.5065 22.3804 14.9334C23.7869 13.4872 27.6651 12.5728 32.6714 13.3297C31.5581 15.8674 30.6206 18.4246 29.7736 20.7959C29.7465 20.8722 29.7191 20.9487 29.6916 21.0252C29.6748 21.0723 29.6579 21.1194 29.641 21.1666C29.5727 21.3585 29.5039 21.5521 29.4366 21.7414L29.4289 21.7633H29.4276C29.0634 22.7791 28.6966 23.7972 28.3355 24.7788H28.3441C28.1826 25.2167 28.0224 25.6403 27.8626 26.0524C27.7911 26.2428 27.7193 26.4328 27.6487 26.6184L27.6409 26.6152C27.3815 27.2631 27.1243 27.8701 26.867 28.4183L26.8592 28.4147C25.1349 32.4738 21.1649 34.356 18.3025 34.0654C17.2762 33.9613 15.4891 33.4794 15.0522 31.4232C14.8136 30.2996 15.0795 29.3011 15.8654 28.3707C17.2749 26.7011 20.6318 25.0859 26.0997 24.8162C26.4674 23.8284 26.8458 22.7863 27.2239 21.7343C21.0116 21.8318 16.0629 23.4853 13.6245 26.3723C12.2228 28.0325 11.714 30.0037 12.1535 32.0733C12.7563 34.9095 14.9461 36.7887 18.0115 37.0997C18.2965 37.1286 18.5875 37.1429 18.8837 37.1429C22.7138 37.1429 27.3568 34.7231 29.525 29.7572L29.5311 29.7603C30.4113 27.8846 31.2574 25.5045 32.1531 22.9846L32.1576 22.9718Z" fill="white"/>
</svg>
