<svg width="48" height="48" viewBox="0 0 48 48" fill="none" xmlns="http://www.w3.org/2000/svg">
<path d="M36.1873 1.03238C33.4803 0.407622 29.0305 0 24 0C18.9695 0 14.5197 0.407622 11.8127 1.03238C6.41533 2.16497 2.16497 6.41533 1.03238 11.8127C0.407622 14.5197 0 18.9695 0 24C0 29.0305 0.407622 33.4803 1.03238 36.1873C2.16497 41.5847 6.41533 45.835 11.8127 46.9676C14.5197 47.5924 18.9695 48 24 48C29.0305 48 33.4803 47.5924 36.1873 46.9676C41.5847 45.835 45.835 41.5847 46.9676 36.1873C47.5924 33.4803 48 29.0305 48 24C48 18.9695 47.5924 14.5197 46.9676 11.8127C45.835 6.41533 41.5847 2.16497 36.1873 1.03238Z" fill="white"/>
<path fill-rule="evenodd" clip-rule="evenodd" d="M28.8544 37C33.4784 37.0115 37.2395 33.287 37.2642 28.6729V18.3271C37.2395 13.713 33.4784 9.98849 28.8544 10H18.4068C13.7834 9.98849 10.0229 13.7133 10 18.3271V28.6729C10.0229 33.2867 13.7834 37.0115 18.4068 37H28.8544Z" fill="#FFFFFE"/>
<path fill-rule="evenodd" clip-rule="evenodd" d="M25.4141 19.5589V23.3C25.415 23.5037 25.4967 23.6984 25.6417 23.8419C25.7864 23.9854 25.9824 24.0654 26.1865 24.0645H28.7026C28.9061 24.0654 29.1015 23.9854 29.2453 23.8416C29.3894 23.6981 29.4696 23.5031 29.469 23.3V20.804C29.4696 20.6009 29.3894 20.4058 29.2453 20.2624C29.1015 20.1186 28.9061 20.0383 28.7026 20.0391H26.947V19.55C26.9568 18.5904 27.741 17.8185 28.7026 17.8218C29.1259 17.8218 29.469 17.4791 29.469 17.0569C29.469 16.6345 29.1259 16.2921 28.7026 16.2921C27.8328 16.2865 26.9969 16.6271 26.3796 17.2387C25.7623 17.8502 25.415 18.682 25.4141 19.55V19.5589ZM18.3887 19.5589V23.3C18.3887 23.5034 18.4698 23.6984 18.6141 23.8416C18.7585 23.9854 18.9543 24.0654 19.1581 24.0645H21.6742C21.8782 24.0654 22.0743 23.9854 22.219 23.8419C22.3639 23.6984 22.4456 23.5037 22.4465 23.3V20.804C22.4465 20.6 22.3648 20.4047 22.2199 20.2609C22.0749 20.1174 21.8785 20.0374 21.6742 20.0391H19.9304V19.55C19.9384 18.5943 20.7164 17.8232 21.6742 17.8218C22.0975 17.8218 22.4406 17.4791 22.4406 17.0569C22.4406 16.6345 22.0975 16.2921 21.6742 16.2921C20.805 16.2874 19.9696 16.6283 19.3532 17.2399C18.7365 17.8511 18.3896 18.6826 18.3887 19.55V19.5589ZM19.3125 27.5628C19.1821 27.5664 19.063 27.6381 18.9991 27.7517C18.9353 27.8655 18.9359 28.0039 19.0006 28.1172C19.0689 28.2328 20.6998 30.9897 23.9496 30.9897C27.1995 30.9897 28.8036 28.2328 28.8779 28.1172C28.9429 28.0019 28.9429 27.8616 28.8779 27.7466C28.8128 27.6325 28.6913 27.5625 28.56 27.5628H19.3125Z" fill="#0A0B09"/>
<path fill-rule="evenodd" clip-rule="evenodd" d="M18.4068 10C13.7834 9.98849 10.0229 13.7133 10 18.3271V28.6729C10.0229 33.2867 13.7834 37.0115 18.4068 37H25.4946L20.8249 33.6706H18.4068C15.6299 33.6807 13.3698 31.444 13.3568 28.6729V18.3271C13.3797 15.5601 15.634 13.3288 18.4068 13.3291H28.8544C31.6274 13.3288 33.8815 15.5601 33.9044 18.3271V28.6729C33.8815 31.4399 31.6274 33.6709 28.8544 33.6706H26.87V37H28.8544C33.4784 37.0115 37.2395 33.287 37.2642 28.6729V18.3271C37.2395 13.713 33.4784 9.98849 28.8544 10H18.4068Z" fill="#FF5551"/>
</svg>
