<svg width="48" height="48" viewBox="0 0 48 48" fill="none" xmlns="http://www.w3.org/2000/svg">
<path d="M36.1873 1.03238C33.4803 0.407622 29.0305 0 24 0C18.9695 0 14.5197 0.407622 11.8127 1.03238C6.41533 2.16497 2.16497 6.41533 1.03238 11.8127C0.407622 14.5197 0 18.9695 0 24C0 29.0305 0.407622 33.4803 1.03238 36.1873C2.16497 41.5847 6.41533 45.835 11.8127 46.9676C14.5197 47.5924 18.9695 48 24 48C29.0305 48 33.4803 47.5924 36.1873 46.9676C41.5847 45.835 45.835 41.5847 46.9676 36.1873C47.5924 33.4803 48 29.0305 48 24C48 18.9695 47.5924 14.5197 46.9676 11.8127C45.835 6.41533 41.5847 2.16497 36.1873 1.03238Z" fill="#6D00CC"/>
<path d="M32.0083 14.2432C31.9216 14.2432 31.8358 14.2603 31.7557 14.2935C31.6757 14.3267 31.603 14.3753 31.5417 14.4366C31.4805 14.4979 31.4319 14.5707 31.3988 14.6508C31.3656 14.7309 31.3486 14.8167 31.3487 14.9034V32.5439C31.3486 32.7189 31.4181 32.8868 31.5418 33.0106C31.6655 33.1344 31.8333 33.204 32.0083 33.2041H36.787C36.8736 33.204 36.9594 33.187 37.0395 33.1538C37.1195 33.1206 37.1923 33.0719 37.2535 33.0106C37.3148 32.9493 37.3633 32.8766 37.3965 32.7965C37.4296 32.7164 37.4466 32.6306 37.4465 32.5439V14.9034C37.4466 14.8167 37.4297 14.7308 37.3966 14.6507C37.3635 14.5706 37.3149 14.4978 37.2536 14.4365C37.1924 14.3752 37.1196 14.3266 37.0395 14.2934C36.9595 14.2603 36.8736 14.2432 36.787 14.2432H32.0083ZM17.9912 14.4763L10.0704 30.2371C9.99173 30.3935 9.97842 30.5747 10.0334 30.7409C10.0883 30.907 10.207 31.0446 10.3633 31.1233L14.6327 33.2691C14.7101 33.3081 14.7945 33.3315 14.881 33.3378C14.9675 33.3441 15.0544 33.3333 15.1367 33.3061C15.219 33.2788 15.2951 33.2355 15.3607 33.1788C15.4262 33.1221 15.48 33.0529 15.5188 32.9754L23.44 17.2146C23.479 17.1372 23.5023 17.0528 23.5087 16.9663C23.515 16.8799 23.5042 16.793 23.4769 16.7107C23.4496 16.6284 23.4064 16.5522 23.3497 16.4867C23.2929 16.4211 23.2238 16.3674 23.1463 16.3285L18.8772 14.1828C18.7207 14.1045 18.5395 14.0914 18.3734 14.1465C18.2073 14.2015 18.0698 14.3202 17.9911 14.4766M24.6541 14.5329L21.2647 31.7132C21.2309 31.8844 21.2663 32.0621 21.3631 32.2074C21.46 32.3526 21.6105 32.4535 21.7817 32.488L26.4654 33.434C26.5506 33.4511 26.6384 33.4512 26.7238 33.4343C26.8091 33.4174 26.8902 33.3839 26.9625 33.3356C27.0348 33.2873 27.0969 33.2252 27.1452 33.1528C27.1935 33.0805 27.227 32.9993 27.2438 32.914L30.6333 15.734C30.6671 15.5627 30.6317 15.3849 30.5347 15.2397C30.4377 15.0945 30.2871 14.9936 30.1159 14.9592L25.432 14.0132C25.3889 14.0046 25.345 14.0001 25.3011 14C25.1483 14.0002 25.0003 14.0534 24.8824 14.1504C24.7644 14.2475 24.6837 14.3825 24.6541 14.5324" fill="white"/>
</svg>
