<svg width="48" height="48" viewBox="0 0 48 48" fill="none" xmlns="http://www.w3.org/2000/svg">
<path d="M36.1873 1.03238C33.4803 0.407622 29.0305 0 24 0C18.9695 0 14.5197 0.407622 11.8127 1.03238C6.41533 2.16497 2.16497 6.41533 1.03238 11.8127C0.407622 14.5197 0 18.9695 0 24C0 29.0305 0.407622 33.4803 1.03238 36.1873C2.16497 41.5847 6.41533 45.835 11.8127 46.9676C14.5197 47.5924 18.9695 48 24 48C29.0305 48 33.4803 47.5924 36.1873 46.9676C41.5847 45.835 45.835 41.5847 46.9676 36.1873C47.5924 33.4803 48 29.0305 48 24C48 18.9695 47.5924 14.5197 46.9676 11.8127C45.835 6.41533 41.5847 2.16497 36.1873 1.03238Z" fill="white"/>
<path d="M22.5627 12C26.5446 12 32.5613 13.2263 35.3621 16.0383C36.0716 16.7514 37 18.1478 37 20.1931C37 23.8293 34.082 29.4083 30.86 32.6442C29.1943 34.3169 26.5446 36.5028 22.9804 36.5028C19.4962 36.5028 16.8352 34.1267 16.0649 33.3529C13.1138 30.3897 11 25.8919 11 21.6981C11 19.0519 11.7512 16.7375 13.6679 14.8138C15.443 13.0317 18.5018 12 22.5627 12ZM27.4912 26.5016C28.8356 25.1511 29.1977 23.488 29.1977 22.5726C29.1977 21.9091 29.024 20.9356 28.1973 20.1062C26.9293 18.8331 25.525 18.4735 23.9974 18.4735C22.0625 18.4735 20.7624 19.0875 19.8965 19.9577C19.2174 20.6395 18.6303 21.6877 18.6303 23.1771C18.6303 24.6656 19.4206 26.1038 20.2821 26.9679C21.0776 27.7669 22.3282 28.3583 23.5875 28.3583C24.8468 28.3583 26.1468 27.852 27.4912 26.5016Z" fill="#5952FF"/>
</svg>
