<svg width="48" height="48" viewBox="0 0 48 48" fill="none" xmlns="http://www.w3.org/2000/svg">
<path d="M0 24C0 4.236 4.236 0 24 0C43.764 0 48 4.236 48 24C48 43.764 43.764 48 24 48C4.236 48 0 43.764 0 24Z" fill="white"/>
<path d="M25.372 12C22.7028 12 21.1551 13.2112 20.415 14.0187C20.3252 13.3009 19.8542 12.3813 18.015 12.3813H14V16.5533H15.6374C15.9065 16.5533 15.9963 16.643 15.9963 16.9121V36H20.7514V28.8673V28.329C21.4916 29.0019 22.9047 29.9439 25.1252 29.9439C29.7682 29.9439 33.0206 26.2654 33.0206 20.972C33.043 15.6112 29.9477 12 25.372 12V12ZM24.4075 25.7944C21.8505 25.7944 20.6841 23.3495 20.6841 21.0617C20.6841 17.4729 22.6355 16.1944 24.4748 16.1944C26.7178 16.1944 28.243 18.1234 28.243 21.0168C28.2206 24.3364 26.2916 25.7944 24.4075 25.7944" fill="#203232"/>
</svg>
