<svg width="48" height="48" viewBox="0 0 48 48" fill="none" xmlns="http://www.w3.org/2000/svg">
<path d="M35.8143 1.02173C33.1351 0.40342 28.7312 0 23.7526 0C18.7739 0 14.37 0.40342 11.6909 1.02173C6.34919 2.14265 2.14265 6.34919 1.02173 11.6909C0.40342 14.37 0 18.7739 0 23.7526C0 28.7312 0.40342 33.1351 1.02173 35.8143C2.14265 41.156 6.34919 45.3625 11.6909 46.4834C14.37 47.1017 18.7739 47.5052 23.7526 47.5052C28.7312 47.5052 33.1351 47.1017 35.8143 46.4834C41.156 45.3625 45.3625 41.156 46.4834 35.8143C47.1017 33.1351 47.5052 28.7312 47.5052 23.7526C47.5052 18.7739 47.1017 14.37 46.4834 11.6909C45.3625 6.34919 41.156 2.14265 35.8143 1.02173Z" fill="white"/>
<path fill-rule="evenodd" clip-rule="evenodd" d="M13.8937 16.8947L21.8954 8.89371C23.087 7.7021 25.0375 7.7021 26.2292 8.89371L34.2301 16.8947C35.4217 18.0863 35.4217 20.0368 34.2301 21.2285L32.9709 22.4877L27.3658 16.8827L30.107 14.1415H19.1429V25.1056L21.8841 22.3644L27.4884 27.9687L26.2292 29.228C25.0375 30.4196 23.087 30.4196 21.8954 29.228L13.8937 21.2285C12.7021 20.0368 12.7021 18.0863 13.8937 16.8947Z" fill="#58BBEA"/>
<path fill-rule="evenodd" clip-rule="evenodd" d="M34.2301 30.1052L26.2292 38.1061C25.0375 39.2978 23.087 39.2978 21.8954 38.1061L13.8937 30.1052C12.7021 28.9136 12.7021 26.963 13.8937 25.7714L15.153 24.5121L20.758 30.1172L18.0168 32.8584H28.9809V21.8935L26.2397 24.6348L20.6347 19.0304L21.894 17.7712C23.0856 16.5795 25.0361 16.5795 26.2278 17.7712L34.2287 25.7721C35.4217 26.963 35.4217 28.9136 34.2301 30.1052Z" fill="#4978BC"/>
</svg>
