<svg width="48" height="48" viewBox="0 0 48 48" fill="none" xmlns="http://www.w3.org/2000/svg">
<path d="M36.1873 1.03238C33.4803 0.407622 29.0305 0 24 0C18.9695 0 14.5197 0.407622 11.8127 1.03238C6.41533 2.16497 2.16497 6.41533 1.03238 11.8127C0.407622 14.5197 0 18.9695 0 24C0 29.0305 0.407622 33.4803 1.03238 36.1873C2.16497 41.5847 6.41533 45.835 11.8127 46.9676C14.5197 47.5924 18.9695 48 24 48C29.0305 48 33.4803 47.5924 36.1873 46.9676C41.5847 45.835 45.835 41.5847 46.9676 36.1873C47.5924 33.4803 48 29.0305 48 24C48 18.9695 47.5924 14.5197 46.9676 11.8127C45.835 6.41533 41.5847 2.16497 36.1873 1.03238Z" fill="white"/>
<path fill-rule="evenodd" clip-rule="evenodd" d="M28.3133 29.9462H9.56444C8.70889 29.9462 8 29.1654 8 28.2231C8 27.2808 8.70889 26.5 9.56444 26.5H28.3133C29.1689 26.5 29.8778 27.2808 29.8778 28.2231C29.8778 29.1654 29.1689 29.9462 28.3133 29.9462" fill="#93C8A2"/>
<path fill-rule="evenodd" clip-rule="evenodd" d="M24.1428 39C22.6428 39 21.1905 38.7792 19.7619 38.3132C18.9524 38.0679 18.5 37.1849 18.7619 36.3509C19 35.5169 19.8571 35.0507 20.6667 35.3207C21.7857 35.6886 22.9524 35.8603 24.1428 35.8603C29.3095 35.8603 33.8095 32.4509 35.3333 27.349C35.5714 26.5151 36.4286 26.049 37.2381 26.3188C38.0474 26.5641 38.5 27.4469 38.2381 28.2811C36.3095 34.6827 30.6664 39 24.1428 39" fill="#43AF79"/>
<path fill-rule="evenodd" clip-rule="evenodd" d="M38.9628 21.5H20.5377C19.6969 21.5 19 20.707 19 19.75C19 18.793 19.6969 18 20.5377 18H38.9628C39.8036 18 40.5 18.793 40.5 19.75C40.5 20.707 39.8276 21.5 38.9628 21.5" fill="#93C8A2"/>
<path fill-rule="evenodd" clip-rule="evenodd" d="M11.5532 21.5C10.7038 21.5 10 20.8042 10 19.9645C10 19.8205 10.0243 19.6526 10.0728 19.5086C12.0143 13.2226 17.7901 9 24.4396 9C25.9685 9 27.4488 9.21593 28.9049 9.67179C29.73 9.91171 30.1911 10.7754 29.9242 11.5912C29.6815 12.4069 28.8078 12.8628 27.9827 12.5988C26.8421 12.263 25.653 12.071 24.4396 12.071C19.1734 12.071 14.5867 15.4059 13.0335 20.3964C12.8394 21.0681 12.2327 21.5 11.5532 21.5" fill="#43AF79"/>
<path fill-rule="evenodd" clip-rule="evenodd" d="M16.0956 33.4358C16.0956 34.2912 15.3943 35 14.5478 35C13.7013 35 13 34.2912 13 33.4358C13 32.5803 13.7013 31.8715 14.5478 31.8715C15.3943 31.8715 16.0956 32.5803 16.0956 33.4358M34.5 13.5643C34.5 14.4198 33.7987 15.1286 32.9522 15.1286C32.1057 15.1286 31.4044 14.4198 31.4044 13.5643C31.4044 12.7088 32.1057 12 32.9522 12C33.7987 12 34.5 12.6844 34.5 13.5643" fill="#93C8A2"/>
</svg>
