<svg width="48" height="48" viewBox="0 0 48 48" fill="none" xmlns="http://www.w3.org/2000/svg">
<g clip-path="url(#clip0_747_12506)">
<path d="M36.1873 1.03238C33.4803 0.407622 29.0305 0 24 0C18.9695 0 14.5197 0.407622 11.8127 1.03238C6.41533 2.16497 2.16497 6.41533 1.03238 11.8127C0.407622 14.5197 0 18.9695 0 24C0 29.0305 0.407622 33.4803 1.03238 36.1873C2.16497 41.5847 6.41533 45.835 11.8127 46.9676C14.5197 47.5924 18.9695 48 24 48C29.0305 48 33.4803 47.5924 36.1873 46.9676C41.5847 45.835 45.835 41.5847 46.9676 36.1873C47.5924 33.4803 48 29.0305 48 24C48 18.9695 47.5924 14.5197 46.9676 11.8127C45.835 6.41533 41.5847 2.16497 36.1873 1.03238Z" fill="black"/>
<path d="M26.9609 34.607C27.3793 35.972 26.1909 37.1549 24.7707 37.1549H13.5714C12.1513 37.1549 10.9627 35.972 11.3813 34.607C11.7733 33.3286 12.4581 32.1527 13.3933 31.187C14.9256 29.6041 17.0039 28.7149 19.171 28.7149C21.3381 28.7149 23.4164 29.6041 24.9489 31.187C25.8839 32.1527 26.5689 33.3286 26.9609 34.607Z" fill="white"/>
<path d="M22.0391 12.5481C21.6207 11.1833 22.8093 10 24.2293 10H35.4286C36.8487 10 38.0373 11.1833 37.6187 12.5481C37.2267 13.8267 36.5417 15.0024 35.6067 15.9681C34.0744 17.551 31.996 18.4403 29.829 18.4403C27.6619 18.4403 25.5834 17.551 24.0511 15.9681C23.1161 15.0024 22.4311 13.8267 22.0391 12.5481Z" fill="white"/>
<path d="M32.356 36.7414C31.009 37.194 29.829 35.9973 29.829 34.569V22.8611C29.829 21.4327 31.009 20.2361 32.356 20.6887C33.5704 21.0967 34.687 21.7969 35.6067 22.747C37.1391 24.3297 38 26.4766 38 28.715C38 30.9534 37.1391 33.1003 35.6067 34.683C34.687 35.6331 33.5704 36.3333 32.356 36.7414Z" fill="white"/>
<path d="M16.6439 10.4139C17.991 9.96129 19.171 11.1579 19.171 12.5861L19.1711 24.2941C19.1711 25.7224 17.991 26.919 16.644 26.4666C15.4296 26.0586 14.313 25.3583 13.3933 24.4083C11.8609 22.8254 11 20.6787 11 18.4401C11 16.2017 11.8609 14.0549 13.3933 12.472C14.313 11.522 15.4296 10.8217 16.6439 10.4139Z" fill="white"/>
</g>
<defs>
<clipPath id="clip0_747_12506">
<rect width="48" height="48" fill="white"/>
</clipPath>
</defs>
</svg>
