<svg width="48" height="48" viewBox="0 0 48 48" fill="none" xmlns="http://www.w3.org/2000/svg">
<path d="M36.1873 1.03238C33.4803 0.407622 29.0305 0 24 0C18.9695 0 14.5197 0.407622 11.8127 1.03238C6.41533 2.16497 2.16497 6.41533 1.03238 11.8127C0.407622 14.5197 0 18.9695 0 24C0 29.0305 0.407622 33.4803 1.03238 36.1873C2.16497 41.5847 6.41533 45.835 11.8127 46.9676C14.5197 47.5924 18.9695 48 24 48C29.0305 48 33.4803 47.5924 36.1873 46.9676C41.5847 45.835 45.835 41.5847 46.9676 36.1873C47.5924 33.4803 48 29.0305 48 24C48 18.9695 47.5924 14.5197 46.9676 11.8127C45.835 6.41533 41.5847 2.16497 36.1873 1.03238Z" fill="white"/>
<g clip-path="url(#clip0_755_17303)">
<path d="M23.6848 9.05722C27.6676 8.7293 30.5282 9.7864 33.606 12.8624C36.929 16.1835 39.1383 20.4872 39.7337 25.0717C40.3961 30.1699 39.485 33.9744 36.6787 36.7597C33.9953 39.4231 30.0759 40.3017 24.8401 39.8639L24.6233 39.8449C20.1648 39.435 17.0113 37.9732 13.9558 34.8787C10.692 31.5733 8.97221 27.8203 9.06404 23.8813C9.10896 21.9529 9.65523 20.3093 10.7087 18.6967C11.3994 17.6395 12.1008 16.8148 13.568 15.3024L14.0576 14.8008L14.5974 14.2537C18.0746 10.7586 20.3638 9.33065 23.6848 9.05722ZM33.3694 13.0993C30.3608 10.0925 27.5968 9.07107 23.7122 9.3909C20.4385 9.66043 18.1903 11.0906 14.6718 14.6543L14.4172 14.9126C12.7029 16.6553 11.8996 17.5463 11.1919 18.5768L11.0889 18.7287L10.989 18.8798C9.96847 20.442 9.44217 22.0255 9.39876 23.8891C9.3092 27.7304 10.9903 31.3988 14.194 34.6434C17.2418 37.7301 20.3729 39.1546 24.868 39.5303L25.091 39.5482C30.1264 39.9354 33.8805 39.0654 36.4429 36.5221C39.1654 33.8199 40.0518 30.1185 39.4017 25.1148C38.8161 20.6057 36.6414 16.3694 33.3694 13.0993ZM29.2026 20.265V21.9005H25.729V31.2744H23.9987V21.9005H20.5251V20.265H29.2026Z" fill="#262627"/>
</g>
<defs>
<clipPath id="clip0_755_17303">
<rect width="31" height="31" fill="white" transform="translate(9 9)"/>
</clipPath>
</defs>
</svg>
