<svg width="48" height="48" viewBox="0 0 48 48" fill="none" xmlns="http://www.w3.org/2000/svg">
<path d="M36.1873 1.03238C33.4803 0.407622 29.0305 0 24 0C18.9695 0 14.5197 0.407622 11.8127 1.03238C6.41533 2.16497 2.16497 6.41533 1.03238 11.8127C0.407622 14.5197 0 18.9695 0 24C0 29.0305 0.407622 33.4803 1.03238 36.1873C2.16497 41.5847 6.41533 45.835 11.8127 46.9676C14.5197 47.5924 18.9695 48 24 48C29.0305 48 33.4803 47.5924 36.1873 46.9676C41.5847 45.835 45.835 41.5847 46.9676 36.1873C47.5924 33.4803 48 29.0305 48 24C48 18.9695 47.5924 14.5197 46.9676 11.8127C45.835 6.41533 41.5847 2.16497 36.1873 1.03238Z" fill="white"/>
<path d="M20.981 13.9982C22.1421 12.7885 23.7585 12.0382 25.5462 12.0382C27.9226 12.0382 29.9959 13.3633 31.1 15.3305C32.0595 14.9018 33.1216 14.6633 34.239 14.6633C38.5251 14.6633 42 18.1685 42 22.492C42 26.8161 38.5251 30.3212 34.239 30.3212C33.7256 30.3215 33.2135 30.2705 32.7103 30.1689C31.738 31.9033 29.8852 33.0751 27.7585 33.0751C26.8682 33.0751 26.0262 32.8695 25.2764 32.5038C24.2908 34.8223 21.9944 36.4479 19.3179 36.4479C16.5308 36.4479 14.1554 34.6843 13.2436 32.211C12.8452 32.2956 12.4323 32.3397 12.0087 32.3397C8.69027 32.3397 6 29.6218 6 26.2684C6 24.0213 7.20872 22.0592 9.00461 21.0095C8.63488 20.1587 8.42923 19.2197 8.42923 18.2325C8.42923 14.3761 11.56 11.25 15.4215 11.25C17.6887 11.25 19.7036 12.3279 20.981 13.9982Z" fill="#00A1E0"/>
<path d="M11.2152 24.3169C11.1926 24.3759 11.2234 24.3882 11.2306 24.3985C11.2982 24.4477 11.367 24.4831 11.4362 24.5226C11.8034 24.7174 12.1501 24.7743 12.5126 24.7743C13.2511 24.7743 13.7095 24.3815 13.7095 23.7492V23.7369C13.7095 23.1523 13.1921 22.94 12.7065 22.7866L12.6434 22.7661C12.2773 22.6471 11.9614 22.5446 11.9614 22.3036V22.2908C11.9614 22.0846 12.146 21.9328 12.4321 21.9328C12.7501 21.9328 13.1275 22.0385 13.3706 22.1728C13.3706 22.1728 13.4419 22.219 13.468 22.1497C13.4824 22.1128 13.6055 21.7815 13.6183 21.7456C13.6321 21.7066 13.6075 21.6779 13.5824 21.6625C13.305 21.4938 12.9214 21.3784 12.5245 21.3784L12.4506 21.3789C11.7747 21.3789 11.3029 21.7871 11.3029 22.3723V22.3846C11.3029 23.0015 11.8235 23.2015 12.3112 23.341L12.3896 23.3651C12.745 23.4743 13.0512 23.5681 13.0512 23.8184V23.8307C13.0512 24.0595 12.8522 24.2297 12.5312 24.2297C12.4066 24.2297 12.0091 24.2271 11.5799 23.9558C11.5281 23.9256 11.4978 23.9035 11.4578 23.8794C11.4368 23.8661 11.384 23.843 11.3609 23.9128L11.2152 24.3169V24.3169ZM22.0259 24.3169C22.0033 24.3759 22.0341 24.3882 22.0413 24.3985C22.109 24.4477 22.1777 24.4831 22.2469 24.5226C22.6141 24.7174 22.9608 24.7743 23.3233 24.7743C24.0618 24.7743 24.5203 24.3815 24.5203 23.7492V23.7369C24.5203 23.1523 24.0028 22.94 23.5172 22.7866L23.4541 22.7661C23.088 22.6471 22.772 22.5446 22.772 22.3036V22.2908C22.772 22.0846 22.9566 21.9328 23.2428 21.9328C23.5607 21.9328 23.9382 22.0385 24.1813 22.1728C24.1813 22.1728 24.2526 22.219 24.2787 22.1497C24.293 22.1128 24.4161 21.7815 24.429 21.7456C24.4428 21.7066 24.4182 21.6779 24.3931 21.6625C24.1156 21.4938 23.732 21.3784 23.3351 21.3784L23.2613 21.3789C22.5854 21.3789 22.1136 21.7871 22.1136 22.3723V22.3846C22.1136 23.0015 22.6341 23.2015 23.1218 23.341L23.2002 23.3651C23.5556 23.4743 23.8623 23.5681 23.8623 23.8184V23.8307C23.8623 24.0595 23.6628 24.2297 23.3418 24.2297C23.2172 24.2297 22.8198 24.2271 22.3906 23.9558C22.3387 23.9256 22.308 23.9045 22.269 23.8794C22.2557 23.8707 22.1931 23.8466 22.1716 23.9128L22.0259 24.3169V24.3169ZM29.4061 23.0783C29.4061 23.4358 29.3395 23.7173 29.2082 23.9163C29.0784 24.1132 28.882 24.2091 28.6082 24.2091C28.3339 24.2091 28.1385 24.1137 28.0108 23.9163C27.8815 23.7178 27.8159 23.4358 27.8159 23.0783C27.8159 22.7214 27.8815 22.4404 28.0108 22.2435C28.1385 22.0486 28.3339 21.9537 28.6082 21.9537C28.882 21.9537 29.0784 22.0486 29.2087 22.2435C29.3395 22.4404 29.4061 22.7214 29.4061 23.0783V23.0783ZM30.0226 22.4158C29.962 22.2111 29.8677 22.0306 29.742 21.8804C29.6164 21.7296 29.4574 21.6086 29.2687 21.5204C29.0805 21.4327 28.8579 21.3881 28.6082 21.3881C28.3579 21.3881 28.1354 21.4327 27.9472 21.5204C27.7584 21.6086 27.5995 21.7297 27.4733 21.8804C27.3482 22.0312 27.2538 22.2117 27.1928 22.4158C27.1328 22.6194 27.1026 22.8419 27.1026 23.0783C27.1026 23.3148 27.1328 23.5378 27.1928 23.7409C27.2538 23.945 27.3477 24.1256 27.4739 24.2763C27.5995 24.4271 27.759 24.5476 27.9472 24.6332C28.1359 24.7188 28.3579 24.7624 28.6082 24.7624C28.858 24.7624 29.08 24.7188 29.2687 24.6332C29.4569 24.5476 29.6164 24.427 29.7421 24.2763C29.8677 24.126 29.962 23.9455 30.0226 23.7409C30.0831 23.5373 30.1134 23.3142 30.1134 23.0783C30.1134 22.8425 30.0831 22.6194 30.0226 22.4158V22.4158ZM35.0844 24.1137C35.0639 24.0537 35.006 24.0762 35.006 24.0762C34.9162 24.1106 34.8208 24.1424 34.7193 24.1583C34.6162 24.1741 34.5029 24.1824 34.3813 24.1824C34.0829 24.1824 33.846 24.0937 33.6762 23.9183C33.506 23.7429 33.4106 23.4593 33.4116 23.0757C33.4126 22.7265 33.4967 22.4639 33.648 22.2639C33.7983 22.065 34.027 21.9629 34.3321 21.9629C34.5865 21.9629 34.7804 21.9921 34.9834 22.0562C34.9834 22.0562 35.0321 22.0772 35.0552 22.0137C35.109 21.8639 35.149 21.7567 35.2064 21.5921C35.2229 21.5454 35.1829 21.5254 35.1685 21.5198C35.0885 21.4885 34.8998 21.4378 34.7572 21.4162C34.6239 21.3957 34.468 21.3849 34.2947 21.3849C34.0356 21.3849 33.8049 21.429 33.6075 21.5173C33.4106 21.6049 33.2434 21.7259 33.1111 21.8768C32.9788 22.0275 32.8783 22.208 32.8111 22.4121C32.7444 22.6157 32.7106 22.8393 32.7106 23.0757C32.7106 23.587 32.8485 24.0003 33.1209 24.3029C33.3936 24.6065 33.8034 24.7608 34.3378 24.7608C34.6537 24.7608 34.9778 24.6968 35.2106 24.6049C35.2106 24.6049 35.2552 24.5834 35.2357 24.5316L35.0844 24.1137V24.1137ZM36.1629 22.7359C36.1922 22.5375 36.2471 22.3723 36.3317 22.2436C36.4594 22.0483 36.6542 21.9411 36.9281 21.9411C37.202 21.9411 37.383 22.0488 37.5127 22.2436C37.5989 22.3723 37.6363 22.5447 37.6512 22.7359H36.1629ZM38.2383 22.2995C38.186 22.1021 38.0563 21.9026 37.9712 21.8113C37.8368 21.6667 37.7055 21.5657 37.5753 21.5092C37.405 21.4364 37.2009 21.3882 36.9773 21.3882C36.7168 21.3882 36.4804 21.4318 36.2886 21.5221C36.0963 21.6123 35.9348 21.7354 35.8081 21.8888C35.6814 22.0416 35.586 22.2236 35.5255 22.4303C35.4645 22.6359 35.4337 22.86 35.4337 23.0964C35.4337 23.3369 35.4655 23.561 35.5286 23.7626C35.5922 23.9657 35.6937 24.1446 35.8312 24.2928C35.9681 24.4421 36.1445 24.559 36.3558 24.6405C36.5655 24.7215 36.8204 24.7636 37.1132 24.763C37.7158 24.761 38.0332 24.6266 38.164 24.5543C38.1871 24.5415 38.2091 24.519 38.1814 24.4543L38.045 24.0723C38.0245 24.0154 37.9666 24.0364 37.9666 24.0364C37.8173 24.0918 37.605 24.1912 37.1101 24.1902C36.7866 24.1897 36.5465 24.0943 36.3962 23.9451C36.2419 23.7923 36.1665 23.5676 36.1532 23.2507L38.2398 23.2528C38.2398 23.2528 38.2947 23.2518 38.3004 23.1984C38.3024 23.1759 38.3722 22.7698 38.2383 22.2995V22.2995ZM19.4518 22.7359C19.4815 22.5375 19.5359 22.3723 19.6205 22.2436C19.7482 22.0483 19.9431 21.9411 20.2169 21.9411C20.4907 21.9411 20.6718 22.0488 20.802 22.2436C20.8876 22.3723 20.9251 22.5447 20.94 22.7359H19.4518V22.7359ZM21.5266 22.2995C21.4743 22.1021 21.3451 21.9026 21.26 21.8113C21.1256 21.6667 20.9943 21.5657 20.8641 21.5092C20.6938 21.4364 20.4898 21.3882 20.2662 21.3882C20.0062 21.3882 19.7692 21.4318 19.5774 21.5221C19.3851 21.6123 19.2236 21.7354 19.0969 21.8888C18.9703 22.0416 18.8749 22.2236 18.8144 22.4303C18.7539 22.6359 18.7226 22.86 18.7226 23.0964C18.7226 23.3369 18.7544 23.561 18.8175 23.7626C18.8811 23.9657 18.9826 24.1446 19.12 24.2928C19.257 24.4421 19.4334 24.559 19.6446 24.6405C19.8544 24.7215 20.1093 24.7636 20.4021 24.763C21.0046 24.761 21.3221 24.6266 21.4529 24.5543C21.476 24.5415 21.498 24.519 21.4703 24.4543L21.3344 24.0723C21.3134 24.0154 21.2555 24.0364 21.2555 24.0364C21.1062 24.0918 20.8944 24.1912 20.3985 24.1902C20.0755 24.1897 19.8355 24.0943 19.6852 23.9451C19.5308 23.7923 19.4555 23.5676 19.4421 23.2507L21.5287 23.2528C21.5287 23.2528 21.5836 23.2518 21.5893 23.1984C21.5912 23.1759 21.661 22.7698 21.5266 22.2995V22.2995ZM14.9415 24.1022C14.8599 24.0371 14.8486 24.0207 14.821 23.9786C14.7799 23.9145 14.7589 23.8232 14.7589 23.7074C14.7589 23.5238 14.8194 23.392 14.9451 23.3032C14.9436 23.3038 15.1246 23.1469 15.5502 23.1525C15.8491 23.1566 16.1163 23.2007 16.1163 23.2007V24.1494H16.1168C16.1168 24.1494 15.8517 24.2063 15.5533 24.2243C15.1286 24.2499 14.9399 24.1017 14.9415 24.1022V24.1022ZM15.7717 22.6361C15.6871 22.6299 15.5773 22.6263 15.446 22.6263C15.2671 22.6263 15.0943 22.6489 14.9322 22.6925C14.7691 22.736 14.6225 22.8043 14.4963 22.8945C14.3703 22.9844 14.2668 23.1022 14.1938 23.2386C14.1199 23.376 14.0825 23.5381 14.0825 23.7196C14.0825 23.9043 14.1143 24.0648 14.1779 24.1961C14.2415 24.3279 14.3333 24.4376 14.4502 24.5222C14.566 24.6069 14.7091 24.6689 14.8753 24.7063C15.0389 24.7438 15.2245 24.7627 15.4276 24.7627C15.6414 24.7627 15.8548 24.7453 16.0614 24.7099C16.266 24.675 16.5173 24.6242 16.5871 24.6084C16.636 24.5966 16.6847 24.5841 16.7332 24.5709C16.785 24.5581 16.7809 24.5027 16.7809 24.5027L16.7799 22.5945C16.7799 22.176 16.6681 21.8658 16.4481 21.6735C16.2291 21.4817 15.9066 21.3847 15.4896 21.3847C15.3332 21.3847 15.0814 21.4063 14.9307 21.4365C14.9307 21.4365 14.4748 21.5248 14.2871 21.6714C14.2871 21.6714 14.246 21.6971 14.2686 21.7545L14.4163 22.1515C14.4348 22.2027 14.4845 22.1853 14.4845 22.1853C14.4845 22.1853 14.5004 22.1791 14.5189 22.1684C14.9205 21.9499 15.4281 21.9566 15.4281 21.9566C15.6538 21.9566 15.8271 22.0017 15.944 22.0914C16.0579 22.1786 16.1158 22.3104 16.1158 22.5883V22.6765C15.9363 22.6509 15.7717 22.6361 15.7717 22.6361V22.6361ZM32.6016 21.5609C32.6174 21.5137 32.5841 21.4911 32.5703 21.486C32.5349 21.4722 32.3575 21.4347 32.2205 21.426C31.9585 21.4101 31.8129 21.4542 31.6826 21.5127C31.5534 21.5711 31.4098 21.6655 31.3298 21.7727V21.5189C31.3298 21.4835 31.3046 21.4552 31.2698 21.4552H30.7349C30.7 21.4552 30.6749 21.4834 30.6749 21.5189V24.6311C30.6749 24.666 30.7036 24.6947 30.7385 24.6947H31.2867C31.3035 24.6946 31.3196 24.6879 31.3314 24.676C31.3432 24.6641 31.3498 24.6479 31.3498 24.6311V23.0763C31.3498 22.8676 31.3729 22.6594 31.419 22.5286C31.4641 22.3994 31.5257 22.2958 31.6016 22.2214C31.678 22.1476 31.7646 22.0958 31.8595 22.0666C31.9564 22.0368 32.0636 22.0271 32.1395 22.0271C32.2487 22.0271 32.3687 22.0552 32.3687 22.0552C32.4087 22.0599 32.4313 22.0352 32.4446 21.9989C32.4805 21.9035 32.5821 21.6178 32.6016 21.5609" fill="white"/>
<path d="M27.4556 20.1181C27.3889 20.0976 27.3284 20.0838 27.2494 20.0689C27.1694 20.0546 27.074 20.0474 26.9658 20.0474C26.5884 20.0474 26.2909 20.154 26.0822 20.3643C25.8745 20.5735 25.7335 20.892 25.6627 21.311L25.637 21.452H25.1632C25.1632 21.452 25.1058 21.4499 25.0935 21.5125L25.0161 21.9469C25.0104 21.9879 25.0284 22.014 25.0837 22.014H25.5448L25.0771 24.6253C25.0406 24.8356 24.9986 25.0084 24.9519 25.1397C24.9063 25.2689 24.8617 25.3658 24.8063 25.4366C24.753 25.5043 24.7027 25.5545 24.6155 25.5838C24.5437 25.6079 24.4606 25.6191 24.3699 25.6191C24.3196 25.6191 24.2525 25.6109 24.2027 25.6007C24.1535 25.5909 24.1273 25.5802 24.0899 25.5642C24.0899 25.5642 24.036 25.5438 24.0145 25.5976C23.9975 25.6422 23.8745 25.9801 23.8596 26.0217C23.8453 26.0632 23.8658 26.0955 23.8919 26.1053C23.9534 26.1268 23.9991 26.1412 24.0827 26.1612C24.1986 26.1884 24.2965 26.1899 24.3883 26.1899C24.5801 26.1899 24.7555 26.1627 24.9006 26.1104C25.0463 26.0576 25.1734 25.9658 25.2862 25.8417C25.4078 25.7073 25.4842 25.5668 25.557 25.3745C25.6293 25.1848 25.6914 24.9489 25.7406 24.674L26.2109 22.014H26.8981C26.8981 22.014 26.956 22.0161 26.9678 21.953L27.0457 21.5192C27.0509 21.4777 27.0334 21.452 26.9775 21.452H26.3103C26.3139 21.4372 26.3442 21.2022 26.4206 20.9813C26.4534 20.8874 26.515 20.811 26.5668 20.7587C26.6181 20.7074 26.677 20.671 26.7417 20.65C26.8078 20.6284 26.8832 20.6182 26.9658 20.6182C27.0284 20.6182 27.0904 20.6253 27.137 20.6351C27.2017 20.6489 27.2268 20.6561 27.2437 20.6613C27.312 20.6818 27.3212 20.6618 27.3345 20.629L27.494 20.191C27.5104 20.1438 27.4699 20.1238 27.4556 20.1181V20.1181ZM18.1338 24.631C18.1338 24.6659 18.1086 24.6941 18.0738 24.6941H17.5204C17.4856 24.6941 17.4609 24.6659 17.4609 24.631V20.1776C17.4609 20.1428 17.4856 20.1146 17.5204 20.1146H18.0738C18.1086 20.1146 18.1338 20.1428 18.1338 20.1776V24.631Z" fill="white"/>
</svg>
