<svg width="48" height="48" viewBox="0 0 48 48" fill="none" xmlns="http://www.w3.org/2000/svg">
<path d="M0 24C0 4.236 4.236 0 24 0C43.764 0 48 4.236 48 24C48 43.764 43.764 48 24 48C4.236 48 0 43.764 0 24Z" fill="#F4F4F5"/>
<path d="M11.9807 33.1858C11.2733 33.1873 10.5782 33.0011 9.96634 32.646C9.3545 32.291 8.84787 31.7799 8.49821 31.165C8.1539 30.5544 7.98219 29.8616 8.00146 29.1609C8.02073 28.4602 8.23026 27.7779 8.60761 27.1872L15.7792 15.9254C16.1462 15.3201 16.6674 14.8231 17.2893 14.4852C17.9113 14.1472 18.6119 13.9804 19.3194 14.0018C20.0264 14.0188 20.7162 14.2232 21.3182 14.5943C21.9202 14.9654 22.4128 15.4898 22.7456 16.1138C23.4142 17.3779 23.3306 18.8989 22.5299 20.0855L15.3629 31.3473C14.9994 31.9137 14.4989 32.3791 13.9076 32.7005C13.3164 33.0219 12.6536 33.1888 11.9807 33.1858V33.1858Z" fill="#F62B54"/>
<path d="M24.282 33.1858C22.8356 33.1858 21.5046 32.4124 20.8056 31.1695C20.4621 30.5606 20.2908 29.8697 20.3101 29.1708C20.3293 28.4719 20.5385 27.7915 20.915 27.2024L28.0729 15.9664C28.4346 15.3526 28.9539 14.8468 29.5769 14.5014C30.1999 14.1559 30.904 13.9834 31.6162 14.0018C33.0748 14.0337 34.3967 14.8496 35.0652 16.1259C35.7292 17.4022 35.632 18.9323 34.8069 20.1159L27.6505 31.3519C27.2882 31.9158 26.7897 32.3794 26.201 32.6999C25.6123 33.0204 24.9523 33.1875 24.282 33.1858V33.1858Z" fill="#FFCC00"/>
<path d="M36.3074 33.2801C38.3465 33.2801 39.9995 31.6618 39.9995 29.6654C39.9995 27.6691 38.3465 26.0508 36.3074 26.0508C34.2683 26.0508 32.6152 27.6691 32.6152 29.6654C32.6152 31.6618 34.2683 33.2801 36.3074 33.2801Z" fill="#00CA72"/>
</svg>
