<svg width="48" height="48" viewBox="0 0 48 48" fill="none" xmlns="http://www.w3.org/2000/svg">
<path d="M36.1873 1.03238C33.4803 0.407622 29.0305 0 24 0C18.9695 0 14.5197 0.407622 11.8127 1.03238C6.41533 2.16497 2.16497 6.41533 1.03238 11.8127C0.407622 14.5197 0 18.9695 0 24C0 29.0305 0.407622 33.4803 1.03238 36.1873C2.16497 41.5847 6.41533 45.835 11.8127 46.9676C14.5197 47.5924 18.9695 48 24 48C29.0305 48 33.4803 47.5924 36.1873 46.9676C41.5847 45.835 45.835 41.5847 46.9676 36.1873C47.5924 33.4803 48 29.0305 48 24C48 18.9695 47.5924 14.5197 46.9676 11.8127C45.835 6.41533 41.5847 2.16497 36.1873 1.03238Z" fill="#FFF3E6"/>
<path d="M13.9233 26.0561L13.918 26.0391L17.2967 22.9459V21.4556H11.8761V22.9459H15.1139L15.1192 22.9602L11.7734 26.0561V27.5465H17.3512V26.0561H13.9233Z" fill="#201515"/>
<path d="M20.6779 21.3137C20.0526 21.3137 19.5431 21.408 19.1491 21.5966C18.7823 21.761 18.4732 22.0318 18.2621 22.3739C18.0601 22.7183 17.9333 23.1015 17.89 23.4984L19.5347 23.7296C19.5942 23.3791 19.7132 23.1307 19.8917 22.9844C20.0946 22.8313 20.3446 22.7539 20.5985 22.7657C20.9323 22.7657 21.1744 22.855 21.325 23.0334C21.474 23.2119 21.5499 23.4591 21.5499 23.7849V23.9473H19.9684C19.1634 23.9473 18.5851 24.1258 18.2336 24.4828C17.8819 24.8397 17.7064 25.311 17.707 25.8964C17.707 26.4961 17.8825 26.9423 18.2336 27.235C18.5845 27.5278 19.026 27.6732 19.558 27.6714C20.2177 27.6714 20.7252 27.4445 21.0804 26.9905C21.2902 26.7115 21.44 26.3922 21.5204 26.0526H21.5802L21.8069 27.5429H23.2973V23.7688C23.2973 22.9888 23.0917 22.3847 22.6806 21.9563C22.2694 21.5279 21.6019 21.3137 20.6779 21.3137ZM21.1991 25.966C20.9626 26.1632 20.653 26.2614 20.2674 26.2614C19.9497 26.2614 19.729 26.2058 19.6052 26.0945C19.545 26.0419 19.4969 25.9766 19.4647 25.9033C19.4325 25.8301 19.4167 25.7506 19.4187 25.6706C19.4151 25.5951 19.4271 25.5197 19.4536 25.449C19.4801 25.3783 19.5208 25.3137 19.5731 25.2592C19.6296 25.2061 19.6963 25.1651 19.7692 25.1386C19.8421 25.112 19.9196 25.1006 19.997 25.1048H21.5525V25.2074C21.5557 25.3525 21.5255 25.4963 21.4642 25.6279C21.4029 25.7594 21.3122 25.8751 21.1991 25.966Z" fill="#201515"/>
<path d="M32.3096 21.4556H30.5488V27.5473H32.3096V21.4556Z" fill="#201515"/>
<path d="M42.7049 21.4556C42.2075 21.4556 41.8154 21.6311 41.5287 21.9821C41.3228 22.2344 41.1663 22.6071 41.0592 23.1003H41.0075L40.7773 21.4556H39.2734V27.5465H41.0343V24.4229C41.0343 24.0291 41.1265 23.7271 41.3109 23.5171C41.4953 23.3071 41.8356 23.2021 42.3319 23.2021H43.0003V21.4556H42.7049Z" fill="#201515"/>
<path d="M37.5273 21.6547C37.1162 21.4102 36.5977 21.2882 35.9718 21.2888C34.9866 21.2888 34.2155 21.5693 33.6586 22.1304C33.1017 22.6914 32.8233 23.4649 32.8233 24.4507C32.8091 25.0467 32.9392 25.6374 33.2026 26.1722C33.4436 26.6489 33.8191 27.0444 34.2825 27.3101C34.7489 27.5796 35.3037 27.7147 35.9468 27.7152C36.5031 27.7152 36.9678 27.6296 37.3408 27.4583C37.6915 27.3044 37.9969 27.0631 38.2279 26.7577C38.4478 26.4578 38.6111 26.1203 38.7098 25.7617L37.1927 25.3369C37.1288 25.5701 37.0059 25.7828 36.8357 25.9545C36.6643 26.1258 36.3773 26.2115 35.9745 26.2115C35.4956 26.2115 35.1386 26.0744 34.9035 25.8001C34.7331 25.602 34.6261 25.3191 34.5787 24.9523H38.733C38.75 24.7809 38.7589 24.6372 38.7589 24.5212V24.1419C38.7689 23.6324 38.6637 23.1272 38.451 22.6641C38.252 22.2422 37.93 21.8903 37.5273 21.6547ZM35.921 22.7408C36.6349 22.7408 37.0398 23.0921 37.1355 23.7948H34.6099C34.6501 23.5603 34.7472 23.3394 34.8929 23.1513C35.1243 22.8771 35.467 22.7402 35.921 22.7408Z" fill="#201515"/>
<path d="M31.4471 19.0006C31.3146 18.9961 31.1826 19.0182 31.0589 19.0658C30.9351 19.1133 30.8223 19.1852 30.7269 19.2772C30.6329 19.3701 30.5592 19.4816 30.5104 19.6045C30.4617 19.7274 30.4391 19.8591 30.444 19.9912C30.4392 20.1241 30.462 20.2566 30.5107 20.3804C30.5595 20.5042 30.6332 20.6167 30.7273 20.7107C30.8214 20.8047 30.9339 20.8784 31.0577 20.927C31.1816 20.9756 31.3142 20.9982 31.4471 20.9934C31.5792 20.9984 31.711 20.9758 31.8338 20.9271C31.9567 20.8784 32.0682 20.8046 32.161 20.7105C32.2531 20.6153 32.325 20.5026 32.3724 20.379C32.4198 20.2554 32.4417 20.1235 32.4368 19.9912C32.4428 19.8597 32.4215 19.7283 32.3739 19.6055C32.3264 19.4828 32.2538 19.3713 32.1608 19.2781C32.0677 19.185 31.9563 19.1123 31.8335 19.0646C31.7108 19.017 31.5795 18.9955 31.448 19.0015L31.4471 19.0006Z" fill="#201515"/>
<path d="M27.8099 21.2888C27.2103 21.2888 26.7283 21.4771 26.3642 21.8537C26.0947 22.1328 25.8969 22.5492 25.7707 23.1031H25.7145L25.4843 21.4584H23.9805V29.2976H25.7413V26.0687H25.8055C25.8593 26.284 25.9346 26.4933 26.0304 26.6934C26.1794 27.0194 26.4237 27.2926 26.731 27.477C27.0497 27.6509 27.4086 27.7374 27.7715 27.7278C28.5087 27.7278 29.0701 27.4407 29.4556 26.8665C29.8411 26.2924 30.0339 25.4913 30.0339 24.4632C30.0339 23.4702 29.8474 22.6929 29.4743 22.1313C29.1013 21.5696 28.5465 21.2888 27.8099 21.2888ZM27.9884 25.7028C27.7832 26.0003 27.4619 26.149 27.0246 26.149C26.8443 26.1574 26.6646 26.1226 26.5004 26.0476C26.3362 25.9727 26.1922 25.8597 26.0804 25.718C25.8525 25.4318 25.7389 25.04 25.7395 24.5426V24.4266C25.7395 23.9215 25.8531 23.5348 26.0804 23.2665C26.3077 22.9981 26.6224 22.8655 27.0246 22.8684C27.4697 22.8684 27.793 23.0097 27.9947 23.2923C28.1964 23.5749 28.2972 23.9691 28.2972 24.4748C28.2984 24.9978 28.1961 25.4071 27.9902 25.7028H27.9884Z" fill="#201515"/>
<path d="M11.0918 26.0562H5V27.5483H11.0918V26.0562Z" fill="#FF4F00"/>
</svg>
