<svg width="48" height="48" viewBox="0 0 48 48" fill="none" xmlns="http://www.w3.org/2000/svg">
<path d="M0 24C0 4.236 4.236 0 24 0C43.764 0 48 4.236 48 24C48 43.764 43.764 48 24 48C4.236 48 0 43.764 0 24Z" fill="#FF641D"/>
<path d="M37.0357 23.2504C36.3709 22.1072 35.4356 21.1907 34.2663 20.5007C33.3925 19.9924 32.4865 19.6697 31.4654 19.5311V15.8986C32.4865 15.4653 33.1201 14.5064 33.1201 13.3876C33.1201 11.8628 31.8965 10.6271 30.3719 10.6271C28.8461 10.6271 27.6011 11.8628 27.6011 13.3876C27.6011 14.5064 28.1982 15.4653 29.2192 15.8986V19.5328C28.4024 19.6507 27.5553 19.9052 26.7818 20.2962C25.2019 19.0971 20.0212 15.1631 16.9906 12.8654C17.0624 12.6064 17.1178 12.3395 17.1178 12.0579C17.1178 10.3689 15.7492 9 14.0586 9C12.368 9 11 10.3689 11 12.0579C11 13.7466 12.3694 15.116 14.06 15.116C14.6367 15.116 15.1701 14.9474 15.6303 14.6703L16.2699 15.1551L25.0581 21.4831C24.5935 21.9094 24.1608 22.3943 23.8147 22.9384C23.1132 24.0475 22.6846 25.2679 22.6846 26.5991V26.8769C22.6846 27.8113 22.8623 28.6935 23.1649 29.5223C23.4314 30.2459 23.821 30.9039 24.3036 31.4988L21.3869 34.4207C20.9642 34.2635 20.5051 34.2312 20.0646 34.3278C19.624 34.4243 19.2206 34.6456 18.9025 34.9652C18.6823 35.1842 18.5078 35.4447 18.389 35.7316C18.2702 36.0185 18.2096 36.3261 18.2107 36.6366C18.2109 37.2678 18.457 37.861 18.9038 38.3074C19.1228 38.5276 19.3833 38.7022 19.6703 38.8211C19.9573 38.94 20.2651 39.0008 20.5758 39C20.8866 39.0008 21.1944 38.94 21.4815 38.8211C21.7686 38.7022 22.0293 38.5276 22.2484 38.3074C22.4685 38.0884 22.643 37.828 22.7618 37.5412C22.8806 37.2544 22.9414 36.947 22.9407 36.6366C22.9407 36.3923 22.9029 36.1539 22.8319 35.9274L25.8465 32.9142C26.2598 33.1995 26.7062 33.4397 27.1861 33.6469C28.1326 34.0558 29.1773 34.305 30.3207 34.305H30.5302C31.7942 34.305 32.9866 34.0083 34.1074 33.4014C35.2886 32.76 36.213 31.8828 36.9114 30.7631C37.6134 29.6402 38 28.3997 38 27.0348V26.9666C38 25.624 37.689 24.3853 37.0357 23.2504V23.2504ZM33.3523 29.5713C32.534 30.48 31.5935 31.0398 30.5302 31.0398H30.355C29.7477 31.0398 29.1536 30.8721 28.5721 30.567C27.9166 30.231 27.4183 29.7519 27.0105 29.1452C26.589 28.5497 26.3603 27.8995 26.3603 27.2101V27.0007C26.3603 26.323 26.4904 25.6804 26.8183 25.0734C27.169 24.41 27.6425 23.8941 28.2723 23.4839C28.8906 23.0766 29.551 22.8768 30.2866 22.8768H30.355C31.0219 22.8768 31.6533 23.0082 32.2492 23.3129C32.8563 23.6378 33.3523 24.0816 33.7368 24.6655C34.1103 25.2496 34.3325 25.8795 34.404 26.5658C34.4152 26.7085 34.4209 26.8546 34.4209 26.9942C34.4209 27.9256 34.0648 28.7882 33.3523 29.5713Z" fill="white"/>
</svg>
