<svg width="48" height="48" viewBox="0 0 48 48" fill="none" xmlns="http://www.w3.org/2000/svg">
<g clip-path="url(#clip0_747_12490)">
<path d="M36.1873 1.03238C33.4803 0.407622 29.0305 0 24 0C18.9695 0 14.5197 0.407622 11.8127 1.03238C6.41533 2.16497 2.16497 6.41533 1.03238 11.8127C0.407622 14.5197 0 18.9695 0 24C0 29.0305 0.407622 33.4803 1.03238 36.1873C2.16497 41.5847 6.41533 45.835 11.8127 46.9676C14.5197 47.5924 18.9695 48 24 48C29.0305 48 33.4803 47.5924 36.1873 46.9676C41.5847 45.835 45.835 41.5847 46.9676 36.1873C47.5924 33.4803 48 29.0305 48 24C48 18.9695 47.5924 14.5197 46.9676 11.8127C45.835 6.41533 41.5847 2.16497 36.1873 1.03238Z" fill="#F4F4F5"/>
<path d="M22.8571 35.4835V18.7536L9 35.4835H22.8571Z" fill="#03363D"/>
<path d="M20.8278 17.6492C22.1271 16.3499 22.8571 14.5876 22.8571 12.75H9C9 14.5876 9.72997 16.3499 11.0293 17.6492C12.3287 18.9486 14.091 19.6786 15.9286 19.6786C17.7661 19.6786 19.5284 18.9486 20.8278 17.6492Z" fill="#03363D"/>
<path d="M27.1693 30.5857C25.8699 31.8851 25.1399 33.6474 25.1399 35.485H38.997C38.997 33.6474 38.2671 31.8851 36.9677 30.5857C35.6684 29.2864 33.9061 28.5564 32.0685 28.5564C30.2309 28.5564 28.4686 29.2864 27.1693 30.5857Z" fill="#03363D"/>
<path d="M25.1399 12.75V29.4799L39 12.75H25.1399Z" fill="#03363D"/>
</g>
<defs>
<clipPath id="clip0_747_12490">
<rect width="48" height="48" fill="white"/>
</clipPath>
</defs>
</svg>
