<svg width="48" height="48" viewBox="0 0 48 48" fill="none" xmlns="http://www.w3.org/2000/svg">
<path d="M0 24C0 4.236 4.236 0 24 0C43.764 0 48 4.236 48 24C48 43.764 43.764 48 24 48C4.236 48 0 43.764 0 24Z" fill="#006BFF"/>
<path fill-rule="evenodd" clip-rule="evenodd" d="M36 14.9937C36 13.3193 34.6808 12 33.0063 12H14.9937C13.3192 12 12 13.37 12 14.9937V33.0067C12 34.6812 13.37 36 14.9937 36H33.0063C34.6808 36 36 34.6304 36 33.0067V14.9937ZM15.1966 17.9874V25.1926C15.1966 25.6498 15.5518 26.0051 16.0085 26.0051C16.4651 26.0051 16.8203 25.6493 16.8203 25.1926V17.9874C16.8203 17.5308 16.4651 17.1756 16.0085 17.1756C15.5518 17.1756 15.1966 17.5308 15.1966 17.9874ZM19.2051 27.0701V16.3637C19.2051 15.9071 19.5602 15.5519 20.0169 15.5519C20.4736 15.5519 20.8288 15.9071 20.8288 16.3637V27.0701C20.8288 27.5268 20.4736 27.882 20.0169 27.882C19.5602 27.882 19.2051 27.5272 19.2051 27.0701ZM23.2135 15.9578V27.5775C23.2135 28.0347 23.5687 28.3893 24.0253 28.3893C24.4821 28.3893 24.8371 28.0341 24.8371 27.5775V15.9578C24.8371 15.5011 24.4821 15.1459 24.0253 15.1459C23.5687 15.1459 23.2135 15.5011 23.2135 15.9578ZM27.222 27.0701V16.3637C27.222 15.9071 27.5772 15.5519 28.0339 15.5519C28.4905 15.5519 28.8457 15.9071 28.8457 16.3637V27.0701C28.8457 27.5268 28.4905 27.882 28.0339 27.882C27.5772 27.882 27.222 27.5272 27.222 27.0701ZM32.8034 25.1926V17.9874C32.8034 17.5308 32.4482 17.1756 31.9916 17.1756C31.5348 17.1756 31.1796 17.5308 31.1796 17.9874V25.1926C31.1796 25.6498 31.5348 26.0051 31.9916 26.0051C32.4482 26.0051 32.8034 25.6493 32.8034 25.1926ZM32.6004 29.0998C32.9048 29.4041 32.8541 29.9116 32.4989 30.2159C32.3975 30.3176 29.4038 32.8039 23.9746 32.8039C18.5455 32.8039 15.5518 30.3179 15.4503 30.2159C15.0951 29.9111 15.0951 29.4037 15.3488 29.0998C15.6533 28.7446 16.1607 28.7446 16.4651 28.9981C16.5159 29.0494 19.1543 31.2309 23.9746 31.2309C28.8457 31.2309 31.4335 29.0491 31.4842 28.9981C31.8394 28.6938 32.3468 28.7446 32.6004 29.0998Z" fill="white"/>
</svg>
