<svg width="64" height="64" viewBox="0 0 64 64" fill="none" xmlns="http://www.w3.org/2000/svg">
<path d="M48.2498 1.3765C44.6404 0.543496 38.7074 0 32 0C25.2926 0 19.3596 0.543496 15.7502 1.3765C8.55378 2.88663 2.88663 8.55378 1.3765 15.7502C0.543496 19.3596 0 25.2926 0 32C0 38.7074 0.543496 44.6404 1.3765 48.2498C2.88663 55.4462 8.55378 61.1134 15.7502 62.6235C19.3596 63.4565 25.2926 64 32 64C38.7074 64 44.6404 63.4565 48.2498 62.6235C55.4462 61.1134 61.1134 55.4462 62.6235 48.2498C63.4565 44.6404 64 38.7074 64 32C64 25.2926 63.4565 19.3596 62.6235 15.7502C61.1134 8.55378 55.4462 2.88663 48.2498 1.3765Z" fill="white"/>
<path d="M17.0373 43.883C16.1567 43.8849 15.2914 43.6531 14.5298 43.2111C13.7681 42.7692 13.1375 42.1329 12.7022 41.3675C12.2736 40.6074 12.0599 39.745 12.0838 38.8727C12.1078 38.0005 12.3687 37.1512 12.8384 36.4158L21.7658 22.3968C22.2227 21.6433 22.8714 21.0247 23.6457 20.604C24.4199 20.1833 25.292 19.9757 26.1727 20.0023C27.0528 20.0234 27.9115 20.2779 28.6609 20.7398C29.4103 21.2018 30.0235 21.8545 30.4378 22.6313C31.27 24.2049 31.166 26.0982 30.1692 27.5754L21.2475 41.5944C20.7951 42.2994 20.172 42.8788 19.436 43.2789C18.7 43.6789 17.875 43.8867 17.0373 43.883V43.883Z" fill="#F62B54"/>
<path d="M32.3486 43.8829C30.548 43.8829 28.8911 42.9202 28.0211 41.373C27.5934 40.615 27.3802 39.7549 27.4042 38.8849C27.4282 38.0149 27.6885 37.1679 28.1573 36.4346L37.0676 22.4477C37.5178 21.6837 38.1642 21.054 38.9398 20.624C39.7153 20.194 40.5918 19.9793 41.4783 20.0021C43.2941 20.0419 44.9396 21.0575 45.7718 22.6463C46.5983 24.2351 46.4773 26.1397 45.4503 27.6131L36.5418 41.6C36.0908 42.302 35.4702 42.8791 34.7374 43.2781C34.0045 43.6771 33.183 43.8851 32.3486 43.8829V43.8829Z" fill="#FFCC00"/>
<path d="M47.3187 44.0002C49.8571 44.0002 51.9148 41.9857 51.9148 39.5006C51.9148 37.0155 49.8571 35.001 47.3187 35.001C44.7804 35.001 42.7227 37.0155 42.7227 39.5006C42.7227 41.9857 44.7804 44.0002 47.3187 44.0002Z" fill="#00CA72"/>
</svg>
