<svg width="48" height="48" viewBox="0 0 48 48" fill="none" xmlns="http://www.w3.org/2000/svg">
<path d="M36.1873 1.03238C33.4803 0.407622 29.0305 0 24 0C18.9695 0 14.5197 0.407622 11.8127 1.03238C6.41533 2.16497 2.16497 6.41533 1.03238 11.8127C0.407622 14.5197 0 18.9695 0 24C0 29.0305 0.407622 33.4803 1.03238 36.1873C2.16497 41.5847 6.41533 45.835 11.8127 46.9676C14.5197 47.5924 18.9695 48 24 48C29.0305 48 33.4803 47.5924 36.1873 46.9676C41.5847 45.835 45.835 41.5847 46.9676 36.1873C47.5924 33.4803 48 29.0305 48 24C48 18.9695 47.5924 14.5197 46.9676 11.8127C45.835 6.41533 41.5847 2.16497 36.1873 1.03238Z" fill="white"/>
<path fill-rule="evenodd" clip-rule="evenodd" d="M8.5 36.3657L26.6106 39.5V8.85205L8.5 11.9864V36.3657ZM27.6558 33.6997C28.0042 33.7754 28.1296 33.8346 28.3774 33.8677C28.6474 33.9062 28.9214 33.9269 29.1941 33.9269C29.6155 33.9255 30.0383 33.8814 30.45 33.7919C30.8714 33.7079 31.2749 33.5509 31.6412 33.3278C32.002 33.1061 32.305 32.8045 32.5295 32.4465C32.776 32.0292 32.8972 31.5472 32.8793 31.0611V21.3895H27.6558V33.6997ZM29.4103 19.6283C29.7807 19.6296 30.147 19.5553 30.4886 19.4093C31.1551 19.1256 31.6839 18.5968 31.9676 17.9303C32.2554 17.2403 32.2554 16.4636 31.9662 15.7723C31.6812 15.1058 31.1523 14.5742 30.4858 14.2919C30.1443 14.1459 29.778 14.0729 29.4062 14.0743C29.0385 14.0729 28.6735 14.1459 28.3347 14.2919C28.0827 14.3993 28.0029 14.5398 27.6558 14.7092V18.992C28.0042 19.1628 28.0827 19.3019 28.3347 19.4093C28.6749 19.5566 29.0412 19.6296 29.4103 19.6283V19.6283ZM33.9245 23.1316V31.4894H35.3168C35.796 31.488 36.2725 31.4426 36.7421 31.3544C37.2158 31.2704 37.6703 31.112 38.0931 30.8834C38.4911 30.6672 38.834 30.3629 39.0984 29.9952C39.3752 29.5876 39.5143 29.1028 39.495 28.6098V23.1316H33.9245ZM34.737 20.5577C34.9904 20.8111 35.2906 21.0122 35.6198 21.1527C36.3097 21.4419 37.0878 21.4419 37.7791 21.1527C38.4456 20.869 38.9758 20.3388 39.2581 19.6722C39.5473 18.9823 39.5473 18.2056 39.2581 17.5157C38.9744 16.8491 38.4456 16.3176 37.7791 16.0353C37.0892 15.7461 36.3111 15.7461 35.6198 16.0353C34.9532 16.3189 34.423 16.8491 34.1407 17.5157C33.8515 18.2042 33.8515 18.9809 34.1407 19.6722C34.2812 20.0028 34.485 20.303 34.737 20.5577V20.5577Z" fill="#5558AF"/>
<path fill-rule="evenodd" clip-rule="evenodd" d="M21.5 18.5L13.5 19.0153V20.9652L16.5002 20.837V29.876L18.4998 30V20.7535L21.5 20.6128V18.5Z" fill="white"/>
</svg>
