<svg width="156" height="29" viewBox="0 0 156 29" fill="none" xmlns="http://www.w3.org/2000/svg">
<g clip-path="url(#clip0_617_17708)">
<path fill-rule="evenodd" clip-rule="evenodd" d="M67.5511 7.25378C69.5565 7.25378 71.5196 7.6146 72.7023 7.94085L72.8034 7.96912L72.8987 7.48694H81.0748V10.1692L79.2651 10.3631L81.8504 19.4441H82.0766L84.9528 7.90706H89.8326L92.6118 19.4441H92.8057L95.2295 10.3631L93.3874 10.1692L93.8075 7.48694H100.594L100.594 9.29579C100.447 9.58575 100.311 9.88191 100.186 10.1838L99.4306 10.3308C98.9956 10.3929 98.7996 10.5447 98.6702 10.9298L98.655 10.9771L94.6801 24.3239H89.5741L87.0534 13.4978H86.8595L84.3065 24.3239H78.4895L74.4176 10.9448C74.2937 10.5732 74.1402 10.4983 73.7863 10.4074L73.739 10.3954L73.454 10.3343L73.4723 10.4074V12.8574L70.029 12.6322L69.7072 10.9574C69.6754 10.6997 69.6107 10.5711 69.3859 10.5066L69.2832 10.4769C68.8481 10.3588 68.1284 10.2489 67.3264 10.2489C65.7173 10.2489 64.8161 10.8608 64.8161 11.8914C64.8161 13.0175 66.1038 13.3941 67.7004 13.7603L68.7784 14.0056L68.9275 14.041C71.3669 14.6281 73.9551 15.62 73.9551 19.2016C73.9551 23.1308 70.7696 24.7408 66.6826 24.7408C63.8318 24.7408 61.0421 24.0083 60.3618 23.6131L60.311 23.5816V18.9119L63.7542 19.1695L64.0764 21.0051L64.0865 21.0836C64.1223 21.3188 64.2005 21.4299 64.4624 21.488L64.5379 21.5121L64.6239 21.5373L64.7201 21.5632L64.8308 21.5905C65.295 21.7 66.0166 21.8101 66.9404 21.8101C68.6453 21.8101 69.6107 21.3273 69.6107 20.1356C69.6107 18.8685 68.3653 18.474 66.763 18.1854L66.0302 18.0534L65.718 17.9942C63.2083 17.5055 60.4402 16.6208 60.4402 12.8899C60.4402 8.89654 63.8507 7.25378 67.5511 7.25378ZM37.8749 7.25378C42.6907 7.25378 44.6523 8.54845 44.6911 12.9487L44.6917 13.083L44.6918 20.9555L44.6929 21.0419L44.6956 21.1188L44.7009 21.1892C44.7256 21.4307 44.8138 21.4927 45.1173 21.54L45.2037 21.5525L46.5057 21.7709V18.9119L49.9302 19.1695L50.2507 21.0051C50.2819 21.2949 50.3466 21.4238 50.6346 21.488L50.7096 21.5121L50.7951 21.5373L50.8908 21.5632L51.0009 21.5905C51.4625 21.7 52.1803 21.8101 53.099 21.8101C54.7946 21.8101 55.7547 21.3273 55.7547 20.1356C55.7547 18.9108 54.5973 18.5013 53.0807 18.2146L52.1838 18.0515L51.8736 17.9922L51.6486 17.9471L51.4295 17.9009C49.0653 17.3884 46.6342 16.3957 46.6342 12.8899C46.6342 8.89654 50.0262 7.25378 53.7064 7.25378C56.1496 7.25378 58.5332 7.79554 59.4996 8.15135L59.5953 8.18778V12.8574L56.1708 12.6322L55.8507 10.9574C55.8191 10.6997 55.7547 10.5711 55.5312 10.5066C55.1151 10.3779 54.347 10.2489 53.4829 10.2489C51.8826 10.2489 50.9862 10.8608 50.9862 11.8914C50.9862 13.0369 52.3115 13.4066 53.9373 13.7791L54.6987 13.9525C57.2268 14.532 60.0755 15.4339 60.0755 19.2016C60.0755 23.1304 56.9074 24.7408 52.8426 24.7408C50.2534 24.7408 47.7206 24.1308 46.7847 23.7235L46.74 23.7037V24.3542H40.8511L40.5306 22.6151L40.3709 22.5831C39.1551 23.7747 37.5548 24.7408 34.9944 24.7408C30.9625 24.7408 30.3219 21.9715 30.3219 19.9745C30.3219 16.7864 32.267 15.3026 36.1874 15.0233L39.987 14.7578L39.9869 12.9245L39.9853 12.742L39.9828 12.6215L39.9764 12.4454L39.97 12.3312C39.8962 11.1831 39.5254 10.4424 37.8427 10.4424L37.6465 10.4438L37.5204 10.4465C36.2154 10.4834 35.5278 10.7978 35.507 12.5183L35.5065 12.6001L30.9937 12.2132C30.9937 7.90944 34.8523 7.2664 37.7863 7.25397L37.8749 7.25378ZM153.831 0.0258179L153.833 20.8937L153.835 20.9683C153.851 21.2484 153.924 21.3159 154.25 21.367L155.853 21.603V24.1246H149.978L149.662 22.3371L149.441 22.3052C148.114 23.6139 146.566 24.5076 144.261 24.5076C140.533 24.5076 138.133 22.1137 138.133 16.0172C138.133 9.60149 141.323 7.17566 144.829 7.17566C146.618 7.17566 148.015 7.784 149.197 8.64437L149.283 8.70776V3.85609C149.283 3.5537 149.17 3.33725 148.916 3.23389L148.872 3.21771L147.135 2.61125L147.482 0.0258179H153.831ZM135.458 7.02062C136.181 7.02062 137.601 7.14207 138.224 7.29692L138.285 7.31306V13.2268L134.386 13.0968L134.061 11.3747C133.996 11.0823 133.898 11.0173 133.638 11.0173C132.843 11.0173 131.904 11.6505 131.39 12.0772L131.299 12.1545L131.299 20.8213C131.302 21.277 131.347 21.3775 131.775 21.4118L135.036 21.675V24.2745H124.41V21.6425L125.873 21.4476C126.313 21.3847 126.388 21.2914 126.392 20.8437L126.393 11.2772C126.393 10.936 126.304 10.7133 126.013 10.609L125.97 10.5949L124.233 9.9833L124.219 9.95119L124.573 7.34555H130.292L130.682 9.945H130.877C131.949 8.28785 133.379 7.02062 135.458 7.02062ZM23.1291 0.958458C29.1015 0.958458 30.9087 4.11473 30.9087 7.81805C30.9087 13.3655 27.5873 15.6304 22.227 15.6752L22.064 15.6758H19.7075L19.708 20.92L19.7098 21.0015L19.7139 21.0766C19.7344 21.346 19.8177 21.4111 20.1387 21.4605L20.2243 21.4727L24.8401 21.7304V24.2745H12.1865L12.1865 24.267L12.1724 24.2745H0.943141V21.7415L3.69403 21.5166C4.11234 21.4868 4.19576 21.3732 4.20502 20.9673L4.20596 20.8758V9.80283C4.20596 9.34353 3.86067 9.41931 1.45576 10.2343L0.568359 7.60482L6.06481 4.45586H9.03678L9.03688 20.9226L9.03797 21.0093L9.04072 21.0869C9.05714 21.4048 9.13769 21.4839 9.50533 21.5134L9.54903 21.5166L12.1724 21.7415L12.1865 21.7484L12.1865 21.7304L14.2201 21.5048C14.6415 21.4449 14.7262 21.3568 14.7357 20.9525L14.7366 20.8609V4.40446C14.7366 3.93767 14.6759 3.80127 14.264 3.76372L14.2201 3.76018L12.1865 3.53494V0.958458H23.1291ZM39.8966 17.2621L37.7207 17.4217C35.8337 17.5493 35.1617 18.0279 35.1617 19.3047C35.1617 20.5818 35.9296 21.0604 36.9853 21.0604C38.0403 21.0604 39.0953 20.4899 39.8288 19.9609L39.8966 19.9114V17.2621ZM146.226 10.881C143.909 10.881 142.985 13.0512 142.966 15.8671L142.966 15.9591C142.966 19.0767 143.852 20.8123 145.846 20.8123C146.892 20.8123 148.027 20.2057 148.875 19.4933L148.949 19.4302V11.8452C148.158 11.2988 147.144 10.881 146.226 10.881ZM21.5288 4.49472H19.6408V12.1867L21.304 12.1866L21.4299 12.1854L21.6156 12.1812L21.7358 12.1768L21.9127 12.1677C23.8185 12.0511 25.6876 11.328 25.6876 8.10126C25.6876 5.03691 23.7996 4.49472 21.5288 4.49472Z" fill="#30364B"/>
<path d="M112.165 1.72974C119.693 1.72974 125.795 7.83215 125.795 15.3599C125.795 22.8879 119.693 28.99 112.165 28.99C104.638 28.99 98.5352 22.8879 98.5352 15.3599C98.5352 7.83215 104.638 1.72974 112.165 1.72974ZM112.165 3.00756C105.343 3.00756 99.813 8.53788 99.813 15.3599C99.813 22.182 105.343 27.7122 112.165 27.7122C118.987 27.7122 124.518 22.182 124.518 15.3599C124.518 8.53788 118.987 3.00756 112.165 3.00756ZM112.165 5.13727C117.811 5.13727 122.388 9.71414 122.388 15.3599C122.388 21.0058 117.811 25.5825 112.165 25.5825C106.519 25.5825 101.943 21.0058 101.943 15.3599C101.943 9.71414 106.52 5.13727 112.165 5.13727ZM112.165 7.26699C107.696 7.26699 104.072 10.8904 104.072 15.3599C104.072 19.8296 107.696 23.4528 112.165 23.4528C116.635 23.4528 120.258 19.8296 120.258 15.3599C120.258 10.8904 116.635 7.26699 112.165 7.26699ZM113.471 9.60967C113.808 9.60967 114.082 9.91439 114.082 10.2903V15.7729C114.082 15.8933 114.039 16.0087 113.963 16.0938L113.581 16.5192C113.422 16.6964 113.422 16.9837 113.581 17.1609L113.963 17.5863C114.039 17.6714 114.082 17.7868 114.082 17.9071V20.4295C114.082 20.8054 113.808 21.1101 113.471 21.1101H110.86C110.522 21.1101 110.249 20.8054 110.249 20.4295L110.253 15.1471C110.253 15.0267 110.296 14.9113 110.372 14.8262L110.754 14.4008C110.913 14.2236 110.913 13.9363 110.754 13.7591L110.372 13.3337C110.296 13.2486 110.253 13.1332 110.249 13.0193V10.2903C110.249 9.91439 110.522 9.60967 110.86 9.60967H113.471Z" fill="#30364B"/>
</g>
<defs>
<clipPath id="clip0_617_17708">
<rect width="155.043" height="28.9641" fill="white" transform="translate(0.568359 0.0258179)"/>
</clipPath>
</defs>
</svg>