<svg width="126" height="17" viewBox="0 0 126 17" fill="none" xmlns="http://www.w3.org/2000/svg">
<path d="M7.75015 16.0815C8.92393 16.0815 9.75014 16.0292 10.2356 15.9176C10.7207 15.8062 11.2125 15.6358 11.7044 15.3866C12.1959 15.1375 12.5765 14.8948 12.8321 14.6324C13.2058 14.2783 13.5011 13.8326 13.7109 13.3014C13.9207 12.7701 14.0256 12.1801 14.0256 11.5375C14.0256 10.6325 13.7961 9.87181 13.3436 9.25537C12.8847 8.63893 12.2747 8.23256 11.5011 8.02277C12.8124 7.17686 13.4682 6.10791 13.4682 4.80303C13.4682 3.45201 12.8911 2.42275 11.7435 1.72109C10.8585 1.17662 9.48129 0.907769 7.61243 0.907769H0.0976562V16.0815H7.75015ZM6.49769 4.32439C7.19932 4.32439 7.66488 4.35699 7.87474 4.41605C8.16983 4.50126 8.40589 4.65198 8.58294 4.88177C8.75997 5.11125 8.85179 5.37333 8.85179 5.66865C8.85179 6.06207 8.70097 6.37675 8.39933 6.62592C8.09769 6.87509 7.55999 6.99966 6.79275 6.99966H4.91079V4.32439H6.49769ZM6.93702 9.73399C7.92062 9.73399 8.56981 9.85859 8.88458 10.1013C9.19933 10.344 9.3567 10.6916 9.3567 11.1441C9.3567 11.603 9.19933 11.9636 8.87801 12.2195C8.5567 12.4751 7.91407 12.6062 6.94358 12.6062H4.91734V9.73399H6.93702ZM22.1566 9.73399C22.1566 10.8226 22.229 11.6292 22.3665 12.1472C22.5895 12.967 22.8977 13.6293 23.2847 14.1211C23.6717 14.6127 24.1502 15.039 24.7273 15.3995C25.3045 15.7604 25.9864 16.0357 26.7732 16.2258C27.5601 16.4162 28.4912 16.5079 29.5667 16.5079C30.4845 16.5079 31.3373 16.4162 32.1241 16.2326C32.911 16.0489 33.5862 15.7736 34.17 15.4192C34.747 15.0587 35.2387 14.6324 35.6389 14.1341C36.0388 13.6357 36.3273 13.0651 36.5045 12.416C36.6814 11.767 36.7665 10.8882 36.7665 9.77337V0.914528H31.8091V10.2588C31.8091 11.1244 31.6061 11.7538 31.2059 12.1472C30.806 12.5406 30.2354 12.7375 29.5011 12.7375C28.9961 12.7375 28.5503 12.6391 28.1633 12.4422C27.7699 12.2456 27.501 11.9832 27.3504 11.6686C27.1993 11.3539 27.1273 10.8817 27.1273 10.2653V0.920994H22.1699V9.73399H22.1566ZM49.9667 16.0815V10.8029H51.9012C52.537 10.8029 53.0093 10.8752 53.324 11.0192C53.639 11.1635 53.8748 11.38 54.0324 11.6621C54.1895 11.9439 54.2683 12.3441 54.2748 12.8621L54.3077 13.9833C54.3274 14.9735 54.4062 15.6752 54.5504 16.0815H59.593V15.6097C59.4094 15.5964 59.2848 15.5438 59.2192 15.4522C59.1602 15.3866 59.1274 15.1833 59.1145 14.8357L59.0421 12.4422C59.016 11.3736 58.8258 10.6193 58.4783 10.1668C58.1307 9.71431 57.4685 9.30795 56.4913 8.94068C56.9633 8.81609 57.3567 8.63245 57.6649 8.39652C58.1046 8.06184 58.4454 7.6358 58.6816 7.11778C58.9239 6.59978 59.0421 5.96364 59.0421 5.20292C59.0421 4.58646 58.9633 4.07522 58.8063 3.66857C58.6487 3.25544 58.4128 2.86846 58.0978 2.50119C57.7831 2.1342 57.3961 1.83244 56.9371 1.59651C56.4783 1.36026 55.9011 1.18338 55.1994 1.07172C54.4977 0.960367 53.6257 0.901303 52.5832 0.901303H45.1667V16.0751H49.9667V16.0815ZM49.9667 4.56032H52.4061C53.1601 4.56032 53.6848 4.6849 53.9862 4.94053C54.288 5.19645 54.4388 5.55051 54.4388 6.00946C54.4388 6.4555 54.2815 6.80957 53.9665 7.07842C53.6519 7.34081 53.1142 7.47831 52.347 7.47831H49.9732V4.56032H49.9667ZM66.5177 4.90115H71.0029V16.0815H75.9603V4.90115H80.4456V0.907769H66.5177V4.90115ZM102.544 12.4028C103.127 11.1964 103.422 9.82599 103.422 8.31101C103.422 6.75697 103.088 5.3801 102.426 4.18657C101.764 2.99305 100.799 2.0816 99.5408 1.45223C98.2818 0.822556 96.9046 0.507874 95.4028 0.507874C94.616 0.507874 93.862 0.599543 93.1406 0.783186C92.4193 0.966829 91.7505 1.22921 91.1406 1.57005C90.5241 1.91118 89.9342 2.38983 89.3699 3.02597C88.7997 3.65533 88.3536 4.42927 88.0192 5.35364C87.6848 6.27185 87.5145 7.31435 87.5145 8.4685C87.5145 10.8882 88.2423 12.8292 89.6914 14.2851C91.1406 15.7407 93.0815 16.475 95.5077 16.475C97.2325 16.475 98.688 16.1012 99.8816 15.3473C101.068 14.593 101.954 13.616 102.544 12.4028ZM93.3962 11.8128C92.7472 11.0127 92.4257 9.89797 92.4257 8.47495C92.4257 7.52414 92.5701 6.73081 92.8521 6.08821C93.1342 5.44562 93.5144 4.96697 93.9994 4.65876C94.4784 4.35053 94.9896 4.1998 95.5342 4.1998C96.0192 4.1998 96.4585 4.31115 96.8455 4.53417C97.2325 4.75687 97.5407 5.03251 97.7701 5.36042C97.9997 5.68833 98.1833 6.12113 98.321 6.65205C98.4586 7.1833 98.5241 7.79299 98.5241 8.47495C98.5241 9.42578 98.3866 10.2259 98.1045 10.8882C97.8224 11.5504 97.4555 12.0162 96.9832 12.3047C96.5176 12.5932 95.9995 12.7307 95.4357 12.7307C94.5834 12.7307 93.9014 12.4293 93.3962 11.8128ZM116.15 16.0815V8.15381L121.265 16.0815H126V0.907769H121.232V9.03234L116.006 0.907769H111.377V16.0815H116.15Z" fill="#30364B"/>
</svg>