<svg width="1224" height="444" fill="none" xmlns="http://www.w3.org/2000/svg"><g clip-path="url(#clip0_2408_20592)"><path d="M-128.923 138.869c.235 71.302 16.119 184.869 45.608 310.553 29.488 125.685 65.771 234.466 97.273 298.432C73.936 876.053 205.206 957.292 346.9 953.902c71.399-.283 185.133-16.223 311.009-45.756s234.831-65.841 298.906-97.343c128.415-59.984 209.855-191.129 206.555-332.627-.23-71.301-16.12-184.869-45.61-310.553-29.48-125.684-65.77-234.465-97.27-298.431-59.977-128.199-191.247-209.438-332.941-206.049-71.399.284-185.133 16.223-311.009 45.757-125.876 29.533-234.831 65.841-298.906 97.343C-50.782-133.774-132.221-2.628-128.923 138.869z" fill="url(#paint0_radial_2408_20592)"/><path d="M282.46 356.256c.235 71.301 16.119 184.869 45.607 310.553 29.489 125.684 65.772 234.466 97.274 298.431 59.978 128.2 191.248 209.44 332.942 206.05 71.399-.28 185.133-16.22 311.007-45.76 125.88-29.53 234.83-65.84 298.91-97.34 128.41-59.984 209.85-191.129 206.56-332.627-.24-71.301-16.12-184.869-45.61-310.553s-65.77-234.466-97.28-298.431c-59.97-128.2-191.24-209.439-332.94-206.049-71.4.283-185.131 16.223-311.007 45.757C662.047-44.18 553.091-7.873 489.017 23.629 360.601 83.613 279.162 214.758 282.46 356.256z" fill="url(#paint1_radial_2408_20592)"/><path d="M720.675 586.84c.235 71.301 16.119 184.869 45.607 310.553 29.489 125.687 65.772 234.467 97.273 298.427 59.979 128.2 191.245 209.44 332.945 206.05 71.4-.28 185.13-16.22 311.01-45.75 125.87-29.54 234.83-65.84 298.9-97.35 128.42-59.98 209.86-191.13 206.56-332.623-.24-71.301-16.12-184.869-45.61-310.553s-65.77-234.466-97.27-298.431c-59.98-128.199-191.25-209.439-332.94-206.049-71.4.283-185.14 16.223-311.01 45.756-125.88 29.534-234.834 65.842-298.908 97.343-128.416 59.984-209.855 191.129-206.557 332.627z" fill="#fff"/><path d="M720.675 586.84c.235 71.301 16.119 184.869 45.607 310.553 29.489 125.687 65.772 234.467 97.273 298.427 59.979 128.2 191.245 209.44 332.945 206.05 71.4-.28 185.13-16.22 311.01-45.75 125.87-29.54 234.83-65.84 298.9-97.35 128.42-59.98 209.86-191.13 206.56-332.623-.24-71.301-16.12-184.869-45.61-310.553s-65.77-234.466-97.27-298.431c-59.98-128.199-191.25-209.439-332.94-206.049-71.4.283-185.14 16.223-311.01 45.756-125.88 29.534-234.834 65.842-298.908 97.343-128.416 59.984-209.855 191.129-206.557 332.627z" fill="url(#paint2_radial_2408_20592)"/></g><defs><radialGradient id="paint0_radial_2408_20592" cx="0" cy="0" r="1" gradientUnits="userSpaceOnUse" gradientTransform="matrix(-513.82743 -1144.70688 1322.81639 -593.77589 764.456 883.147)"><stop offset=".531" stop-color="#1E65BA"/><stop offset=".776" stop-color="#297CE0"/><stop offset="1" stop-color="#519CF7"/></radialGradient><radialGradient id="paint1_radial_2408_20592" cx="0" cy="0" r="1" gradientUnits="userSpaceOnUse" gradientTransform="matrix(-513.82743 -1144.70688 1322.81639 -593.77589 1175.84 1100.53)"><stop offset=".531" stop-color="#1E65BA"/><stop offset=".776" stop-color="#297CE0"/><stop offset="1" stop-color="#519CF7"/></radialGradient><radialGradient id="paint2_radial_2408_20592" cx="0" cy="0" r="1" gradientUnits="userSpaceOnUse" gradientTransform="matrix(-513.82743 -1144.70688 1322.81639 -593.77589 1614.05 1331.12)"><stop offset=".531" stop-color="#1E65BA"/><stop offset=".776" stop-color="#297CE0"/><stop offset="1" stop-color="#519CF7"/></radialGradient><clipPath id="clip0_2408_20592"><path fill="#fff" d="M0 0h1224v444H0z"/></clipPath></defs></svg>