<svg width="131" height="29" viewBox="0 0 131 29" fill="none" xmlns="http://www.w3.org/2000/svg">
<path d="M24.3685 18.0282H20.0772H17.2265H16.5224L12.2311 22.3189L7.93983 18.0282H7.23571H4.38505H0.09375V22.3189H6.16214L9.19664 25.3534L12.2311 28.3879L15.2656 25.3534L18.2995 22.3189H24.3685V18.0282Z" fill="#30364B"/>
<path d="M24.3685 9.44421H0.09375V13.7355H24.3685V9.44421Z" fill="#30364B"/>
<path d="M24.3685 0.862183H0.09375V5.15349H24.3685V0.862183Z" fill="#30364B"/>
<path d="M34.0195 0.862183H37.88V21.9198H34.0195V0.862183Z" fill="#30364B"/>
<path d="M43.8889 21.32C42.6698 20.6471 41.7047 19.7261 40.9935 18.5559C40.2811 17.3863 39.9258 16.0989 39.9258 14.6954C39.9258 13.2918 40.2811 12.005 40.9935 10.8348C41.7047 9.66517 42.6698 8.74363 43.8889 8.07074C45.1068 7.39785 46.4285 7.0614 47.852 7.0614C49.275 7.0614 50.596 7.39785 51.8151 8.07074C53.033 8.74363 53.9982 9.66459 54.7105 10.8348C55.4217 12.0044 55.7782 13.2918 55.7782 14.6954C55.7782 16.0989 55.4223 17.3857 54.7105 18.5559C53.9982 19.7255 53.033 20.6471 51.8151 21.32C50.596 21.9929 49.275 22.3293 47.852 22.3293C46.4285 22.3293 45.1074 21.9929 43.8889 21.32ZM49.8848 18.2495C50.4988 17.9084 50.9908 17.4258 51.3614 16.8018C51.7314 16.1778 51.9176 15.4761 51.9176 14.6959C51.9176 13.9164 51.732 13.2146 51.3614 12.5901C50.9908 11.9661 50.4988 11.4835 49.8848 11.1423C49.2709 10.8012 48.5927 10.6303 47.852 10.6303C47.1108 10.6303 46.4338 10.8012 45.8192 11.1423C45.2052 11.4835 44.7126 11.9661 44.342 12.5901C43.9708 13.214 43.7864 13.9164 43.7864 14.6959C43.7864 15.4761 43.9708 16.1778 44.342 16.8018C44.7121 17.4258 45.2046 17.9084 45.8192 18.2495C46.4332 18.5907 47.1102 18.7616 47.852 18.7616C48.5927 18.761 49.2703 18.5907 49.8848 18.2495Z" fill="#30364B"/>
<path d="M57.8242 0.862183H61.6847V13.4091L66.7149 7.47207H71.3061L65.6325 14.1697L71.7156 21.9198H66.7732L61.6847 15.2221V21.9198H57.8242V0.862183Z" fill="#30364B"/>
<path d="M75.3582 21.3938C74.2758 20.7698 73.3985 19.8777 72.7262 18.7176C72.0533 17.558 71.7168 16.2169 71.7168 14.6961C71.7168 13.312 72.0386 12.0346 72.682 10.865C73.3254 9.6954 74.2028 8.76914 75.3146 8.08683C76.4259 7.40451 77.6438 7.06335 78.9702 7.06335C79.9059 7.06335 80.759 7.21949 81.5286 7.53119C82.2987 7.84289 82.8885 8.26241 83.298 8.78859V7.47227H87.1586V21.92H83.298V20.6037C82.6935 21.1693 82.05 21.5977 81.3677 21.8905C80.6848 22.1828 79.8075 22.3295 78.7351 22.3295C77.5661 22.3301 76.4406 22.0178 75.3582 21.3938ZM82.3918 17.5922C83.113 16.8126 83.4742 15.8475 83.4742 14.6967C83.4742 13.5466 83.113 12.5814 82.3918 11.8013C81.6706 11.0217 80.7149 10.6317 79.5258 10.6317C78.3362 10.6317 77.3804 11.0223 76.6592 11.8013C75.938 12.5814 75.5774 13.5466 75.5774 14.6967C75.5774 15.8475 75.938 16.8126 76.6592 17.5922C77.3804 18.3723 78.3356 18.7618 79.5258 18.7618C80.7149 18.7618 81.6706 18.3723 82.3918 17.5922Z" fill="#30364B"/>
<path d="M89.9668 0.862183H93.8275V21.9198H89.9668V0.862183Z" fill="#30364B"/>
<path d="M96.8405 4.78064C96.3726 4.3128 96.1387 3.74715 96.1387 3.08428C96.1387 2.40196 96.3726 1.82216 96.8405 1.3443C97.3083 0.867032 97.874 0.627808 98.5369 0.627808C99.2187 0.627808 99.7991 0.867032 100.277 1.3443C100.754 1.82216 100.994 2.40196 100.994 3.08428C100.994 3.74715 100.755 4.3128 100.277 4.78064C99.7991 5.24849 99.2187 5.48241 98.5369 5.48241C97.874 5.483 97.3083 5.24849 96.8405 4.78064ZM96.6354 7.47162H100.496V21.9193H96.6354V7.47162Z" fill="#30364B"/>
<path d="M103.129 20.9226L104.007 17.296H104.182C105.449 18.2712 106.746 18.7584 108.072 18.7584C108.618 18.7584 109.061 18.6559 109.403 18.4515C109.744 18.247 109.915 17.95 109.915 17.5594C109.915 17.1499 109.714 16.8187 109.315 16.5654C108.915 16.312 108.169 16.0003 107.078 15.6291C105.967 15.2591 105.104 14.7223 104.49 14.0205C103.876 13.3187 103.568 12.4903 103.568 11.5346C103.568 10.1894 104.07 9.107 105.074 8.28798C106.078 7.46896 107.35 7.05945 108.891 7.05945C109.671 7.05945 110.363 7.13251 110.968 7.27864C111.572 7.42477 112.147 7.66399 112.693 7.99513L112.84 11.6801H112.635C111.933 11.2317 111.309 10.8959 110.763 10.6714C110.217 10.4475 109.603 10.3349 108.921 10.3349C108.433 10.3349 108.033 10.4327 107.722 10.6272C107.41 10.8222 107.254 11.0762 107.254 11.3879C107.254 11.7974 107.449 12.1338 107.839 12.3972C108.228 12.6606 108.96 12.9776 110.032 13.3476C111.26 13.7571 112.191 14.2544 112.825 14.8395C113.459 15.424 113.776 16.3308 113.776 17.5594C113.776 18.5734 113.522 19.4413 113.015 20.1626C112.508 20.8843 111.84 21.4253 111.011 21.7859C110.183 22.1465 109.271 22.3268 108.277 22.3268C106.268 22.3268 104.552 21.8589 103.129 20.9226Z" fill="#30364B"/>
<path d="M119.214 21.3041C118.005 20.6217 117.055 19.6908 116.363 18.5112C115.67 17.3315 115.324 16.0205 115.324 14.5775C115.324 13.174 115.651 11.9013 116.304 10.7611C116.958 9.62039 117.865 8.71888 119.025 8.05601C120.184 7.39314 121.496 7.0614 122.958 7.0614C124.439 7.0614 125.722 7.40787 126.804 8.09961C127.885 8.79195 128.704 9.7129 129.26 10.8636C129.816 12.0144 130.094 13.2523 130.094 14.5781V15.7188H119.009C119.243 16.8112 119.745 17.6397 120.515 18.2048C121.286 18.7704 122.304 19.0526 123.572 19.0526C125.502 19.0526 127.188 18.4192 128.631 17.1518H129.041L128.894 20.8073C128.017 21.3147 127.091 21.6947 126.116 21.9481C125.141 22.2014 124.205 22.3281 123.308 22.3281C121.788 22.3275 120.423 21.9864 119.214 21.3041ZM126.234 13.0856C126.136 12.2082 125.77 11.5206 125.137 11.0239C124.503 10.5272 123.728 10.278 122.812 10.278C121.915 10.278 121.13 10.5172 120.457 10.9944C119.785 11.4723 119.331 12.1694 119.097 13.0856H126.234Z" fill="#30364B"/>
</svg>