<svg width="125" height="29" viewBox="0 0 125 29" fill="none" xmlns="http://www.w3.org/2000/svg">
<path fill-rule="evenodd" clip-rule="evenodd" d="M73.9898 18.2955V2.87225C73.9898 1.28238 73.2199 0.507874 71.6415 0.507874H67.7166V4.39839H69.2285C69.483 4.39839 69.5657 4.48009 69.5657 4.73826V7.52585C68.9175 6.93598 67.6518 6.15983 65.4722 6.15983C61.2101 6.15983 58.2364 9.59282 58.2364 14.5079C58.2364 19.5013 61.0854 22.8542 65.3247 22.8542C67.7474 22.8542 69.1443 21.7203 69.8266 20.9294C69.9157 21.619 70.3581 22.4915 72.0013 22.4915H75.8063V18.637H74.3268C74.0837 18.637 73.9898 18.5389 73.9898 18.2955ZM66.1576 18.9964C64.0688 18.9964 62.7172 17.2333 62.7172 14.5079C62.7172 11.8576 64.1239 10.0798 66.2176 10.0798C68.5917 10.0798 69.6564 12.2873 69.6564 14.4785C69.6564 17.8118 67.8479 18.9964 66.1576 18.9964Z" fill="#30364B"/>
<path fill-rule="evenodd" clip-rule="evenodd" d="M6.56284 8.04875C7.25157 7.2775 8.67926 6.15986 11.1458 6.15986C15.3851 6.15986 18.2356 9.51442 18.2356 14.5079C18.2356 19.4229 15.2327 22.8543 10.9399 22.8543C8.89318 22.8543 7.58216 21.9785 6.89667 21.3445C6.90154 21.4948 6.90477 21.6631 6.90477 21.8428V28.5079H2.5131V10.7498C2.5131 10.4915 2.43045 10.4099 2.17441 10.4099H0.664062V6.52097H4.34918C6.04588 6.52097 6.48019 7.38371 6.56284 8.04875ZM10.3128 10.0798C8.62255 10.0798 6.81564 11.2661 6.81564 14.5977C6.81564 16.7138 7.89007 18.9965 10.2544 18.9965C12.0078 18.9965 13.7808 17.6288 13.7808 14.5668C13.7808 11.8821 12.387 10.0798 10.3128 10.0798Z" fill="#30364B"/>
<path d="M24.1334 18.2953V8.88515C24.1334 7.29528 23.3734 6.52078 21.8161 6.52078H17.8911V10.4096H19.4031C19.6575 10.4096 19.7401 10.493 19.7401 10.7496V20.127C19.7401 21.7413 20.4758 22.4914 22.0527 22.4914H25.9825V18.6368H24.4705C24.2274 18.6368 24.1334 18.5387 24.1334 18.2953Z" fill="#30364B"/>
<path fill-rule="evenodd" clip-rule="evenodd" d="M35.6072 6.15986C33.1375 6.15986 31.713 7.2775 31.0211 8.04875C30.94 7.38371 30.5073 6.52097 28.8106 6.52097H25.1239V10.4099H26.6342C26.8887 10.4099 26.9713 10.4915 26.9713 10.7498V28.5079H31.3662V21.8428C31.3662 21.6631 31.3613 21.4948 31.3565 21.3445C32.0388 21.9785 33.3547 22.8543 35.3997 22.8543C39.6942 22.8543 42.6938 19.4229 42.6938 14.5079C42.6938 9.51442 39.8449 6.15986 35.6072 6.15986ZM34.711 18.9965C32.3532 18.9965 31.2738 16.7138 31.2738 14.5977C31.2738 11.2661 33.0808 10.0798 34.7726 10.0798C36.8469 10.0798 38.2406 11.8821 38.2406 14.5668C38.2406 17.6288 36.4693 18.9965 34.711 18.9965Z" fill="#30364B"/>
<path fill-rule="evenodd" clip-rule="evenodd" d="M42.9188 14.5084C42.9188 9.59335 46.2279 6.16034 50.9598 6.16034C55.1798 6.16034 58.0158 9.21263 58.0158 13.7551C58.0158 14.2159 57.9298 15.1587 57.9217 15.1979L57.8975 15.4888H47.4822C47.863 17.613 49.4738 18.9675 51.6745 18.9675C53.8892 18.9675 55.5838 17.4633 55.7147 17.3471L55.7226 17.3401L56.0062 17.0688L57.9201 20.2698L57.7435 20.4463C57.6392 20.5481 55.2753 22.8548 51.4088 22.8548C46.4888 22.8548 42.9188 19.3434 42.9188 14.5084ZM50.9598 9.74691C49.3135 9.74691 48.1223 10.6358 47.6459 12.2029H53.4799C53.3 10.7616 52.2822 9.74691 50.9598 9.74691Z" fill="#30364B"/>
<path d="M85.5797 6.30998C83.7517 6.30998 82.0696 7.37371 81.0713 9.06816V8.70377C81.0713 7.25606 80.2789 6.52077 78.7232 6.52077H74.9473V10.4096H76.4577C76.7121 10.4096 76.7963 10.4914 76.7963 10.7495V22.4914H81.188V16.1008C81.188 15.2593 81.295 14.4489 81.5024 13.6988C82.1636 11.4946 83.9202 10.7103 85.3415 10.7103C85.8455 10.7103 86.2117 10.7643 86.2182 10.7659L86.5844 10.8214V6.41946L86.317 6.37371C86.3041 6.37045 85.9313 6.30998 85.5797 6.30998Z" fill="#30364B"/>
<path d="M92.8357 8.88515V18.2953C92.8357 18.5387 92.9302 18.6368 93.1726 18.6368H94.6863V22.4914H90.7602C89.1799 22.4914 88.4423 21.7413 88.4423 20.127V10.7496C88.4423 10.493 88.3618 10.4096 88.1054 10.4096H86.9711V6.52078H90.5213C92.0788 6.52078 92.8357 7.29528 92.8357 8.88515Z" fill="#30364B"/>
<path d="M109.417 6.52109H107.074C105.704 6.52109 104.97 6.99986 104.535 8.17469L101.672 16.2384C101.573 16.5374 101.481 16.8724 101.401 17.1943C101.319 16.8724 101.22 16.5325 101.111 16.2335L98.2476 8.17306C97.8083 6.98515 97.0987 6.52109 95.7118 6.52109H93.2189V10.41H93.8656C94.2094 10.41 94.3197 10.5277 94.4011 10.7434L98.8329 22.4917H103.772L108.204 10.7434C108.286 10.5277 108.399 10.41 108.742 10.41H109.417V6.52109Z" fill="#30364B"/>
<path fill-rule="evenodd" clip-rule="evenodd" d="M116.979 6.16034C112.248 6.16034 108.94 9.59335 108.94 14.5084C108.94 19.3434 112.507 22.8548 117.428 22.8548C121.299 22.8548 123.665 20.5443 123.763 20.4463L123.942 20.2698L122.033 17.0688L121.741 17.3401C121.726 17.3548 119.981 18.9675 117.696 18.9675C115.494 18.9675 113.883 17.613 113.502 15.4888H123.921L123.945 15.1979C123.95 15.1587 124.039 14.2159 124.039 13.7551C124.039 9.21263 121.201 6.16034 116.979 6.16034ZM113.666 12.2029C114.147 10.6358 115.334 9.74691 116.979 9.74691C118.304 9.74691 119.32 10.7616 119.5 12.2029H113.666Z" fill="#30364B"/>
<path d="M23.8329 0.508995H19.9177V4.66749H23.8329V0.508995Z" fill="#30364B"/>
<path d="M88.6208 0.508995H92.5373V4.66749H88.6208V0.508995Z" fill="#30364B"/>
</svg>