<svg width="82" height="29" viewBox="0 0 82 29" fill="none" xmlns="http://www.w3.org/2000/svg">
<path d="M51.2154 1.53033H55.7718V22.5213H51.2154V1.53033ZM36.8968 23.1035C34.0884 23.0999 31.396 21.9832 29.4096 19.998C27.4231 18.0128 26.3047 15.3212 26.2994 12.5128V1.53033H30.8558V12.5128C30.8558 14.1162 31.4928 15.6538 32.6265 16.7876C33.7602 17.9213 35.2979 18.5582 36.9012 18.5582C38.5046 18.5582 40.0422 17.9213 41.176 16.7876C42.3097 15.6538 42.9466 14.1162 42.9466 12.5128V1.53033H47.5031V12.5128C47.4972 15.3225 46.3773 18.0152 44.3891 20.0005C42.4008 21.9858 39.7065 23.1017 36.8968 23.1035ZM64.0675 28.925H59.511V11.2545C59.5115 9.03682 60.1695 6.8691 61.4019 5.02541C62.6343 3.18172 64.3857 1.74486 66.4346 0.896511C68.4836 0.0481607 70.7381 -0.173577 72.9131 0.259336C75.0881 0.692249 77.0858 1.76037 78.6538 3.32864C80.2217 4.89691 81.2895 6.8949 81.722 9.06997C82.1544 11.245 81.9322 13.4995 81.0835 15.5483C80.2347 17.5971 78.7975 19.3482 76.9536 20.5802C75.1096 21.8122 72.9418 22.4698 70.7241 22.4698H67.0656V17.9111H70.7241C72.0407 17.9111 73.3277 17.5207 74.4224 16.7893C75.5171 16.0578 76.3703 15.0182 76.8741 13.8019C77.3779 12.5855 77.5098 11.2471 77.2529 9.95582C76.996 8.66455 76.3621 7.47845 75.4311 6.5475C74.5002 5.61655 73.3141 4.98256 72.0228 4.72572C70.7315 4.46887 69.3931 4.60069 68.1768 5.10452C66.9604 5.60835 65.9208 6.46155 65.1893 7.55623C64.4579 8.65091 64.0675 9.93791 64.0675 11.2545V28.925ZM23.0058 28.925H18.4493V11.2545C18.4493 9.93791 18.0589 8.65091 17.3275 7.55623C16.596 6.46155 15.5564 5.60835 14.3401 5.10452C13.1237 4.60069 11.7853 4.46887 10.494 4.72572C9.20274 4.98256 8.01664 5.61655 7.08569 6.5475C6.15474 7.47845 5.52075 8.66455 5.26391 9.95582C5.00706 11.2471 5.13888 12.5855 5.64271 13.8019C6.14653 15.0182 6.99974 16.0578 8.09442 16.7893C9.1891 17.5207 10.4761 17.9111 11.7927 17.9111H15.4512V22.4698H11.7927C9.57438 22.4703 7.40579 21.8129 5.56114 20.5808C3.71649 19.3487 2.27864 17.5972 1.42944 15.5479C0.580232 13.4987 0.357811 11.2435 0.790305 9.06784C1.2228 6.89213 2.29078 4.89354 3.85918 3.32482C5.42759 1.7561 7.42597 0.68772 9.60159 0.254792C11.7772 -0.178136 14.0324 0.0438345 16.0818 0.892631C18.1313 1.74143 19.883 3.17893 21.1155 5.02333C22.3479 6.86773 23.0058 9.03619 23.0058 11.2545V28.925Z" fill="#30364B"/>
</svg>