<svg width="143" height="21" viewBox="0 0 143 21" fill="none" xmlns="http://www.w3.org/2000/svg">
<path d="M122.729 20.2936H142.515L122.729 0.507874V20.2936Z" fill="#30364B"/>
<path d="M12.3517 0.626635H15.6771V0.650382H15.7246V12.5978C15.7483 14.6881 14.917 16.6595 13.4206 18.1321C11.948 19.6523 9.95276 20.4599 7.86255 20.4361C5.74859 20.4599 3.77714 19.6285 2.30449 18.1321C0.784342 16.6832 -0.0232444 14.6881 0.000509384 12.5978V0.650382H3.3021V12.5978C3.3021 13.7855 3.77714 14.9493 4.63222 15.7807C5.46356 16.6357 6.62743 17.1345 7.81505 17.1108C10.309 17.1108 12.328 15.0681 12.3517 12.5741V0.626635Z" fill="#30364B"/>
<path d="M34.7503 0.602889V20.3886H32.3988L22.3515 7.15854V20.3886H19.0499V0.602889H21.4014L31.4249 13.7855V0.602889H34.7503Z" fill="#30364B"/>
<path d="M37.1017 0.626635H48.6454V3.92822H44.5362V20.4124H41.2109V3.92822H37.1017V0.626635Z" fill="#30364B"/>
<path d="M63.7044 0.626635H67.006V12.5741C67.006 16.9208 63.5144 20.4124 59.1677 20.4124C54.821 20.4124 51.3294 16.9208 51.3294 12.5741V0.626635H54.631V12.5741C54.7023 14.9968 56.65 16.9683 59.0727 17.0158C61.5667 17.0633 63.6569 15.0681 63.7044 12.5741V0.626635Z" fill="#30364B"/>
<path d="M71.5189 2.93061C72.9678 1.41046 74.963 0.602889 77.0532 0.626635C81.2099 0.626635 84.6778 3.88072 84.8915 8.01362H81.5899C81.3762 5.70965 79.4285 3.90446 77.077 3.90446C74.583 3.90446 72.5403 5.94718 72.5403 8.44118V12.5503C72.5403 14.9018 74.3217 16.8495 76.6494 17.0633C79.1434 17.3246 81.3524 15.4719 81.5899 12.9779H84.9153C84.749 17.2296 81.2337 20.5549 77.0057 20.5074C72.6591 20.4599 69.1912 16.9208 69.2387 12.5741V8.46492C69.1912 6.37472 70.0225 4.40326 71.5189 2.93061Z" fill="#30364B"/>
<path d="M90.8296 0.626635H87.528V20.4124H90.8296V0.626635Z" fill="#30364B"/>
<path d="M103.181 18.0609V20.3411H100.829L90.9484 10.4601L100.829 0.579128H103.181V2.90686L95.6038 10.4839L103.181 18.0609Z" fill="#30364B"/>
<path d="M108.739 0.626635H106.482V3.40565H108.739V0.626635Z" fill="#30364B"/>
<path d="M108.739 5.18708H106.482V20.4124H108.739V5.18708Z" fill="#30364B"/>
<path d="M113.062 5.16334H110.52C110.52 5.16334 110.52 7.1348 110.544 7.15854H113.086V16.8495C113.086 18.916 114.606 20.4361 116.648 20.4361H119.285V18.4409H117.242C116.031 18.4409 115.318 17.6808 115.318 16.4932V7.1348H119.261V5.18708H115.318V0.602889H113.062V5.16334Z" fill="#30364B"/>
</svg>