<svg width="24" height="24" viewBox="0 0 24 24" fill="none" xmlns="http://www.w3.org/2000/svg">
<path opacity="0.5" d="M20.3319 9.66507H19.6301C19.3492 9.66507 19.0992 9.49223 18.9961 9.23113C18.9671 9.15706 18.9369 9.08422 18.9054 9.01138C18.7937 8.75398 18.848 8.45461 19.0467 8.25585L19.543 7.75957C20.1942 7.10836 20.1942 6.05222 19.543 5.40038L18.5998 4.4572C17.9486 3.80599 16.8925 3.80599 16.2407 4.4572L15.7444 4.95348C15.5456 5.15224 15.2469 5.20656 14.9888 5.09484C14.916 5.06336 14.8432 5.03311 14.7691 5.0041C14.508 4.90102 14.3352 4.65102 14.3352 4.37017V3.66834C14.3352 2.74738 13.5883 2.00049 12.6673 2.00049H11.3334C10.4124 2.00049 9.66556 2.74738 9.66556 3.66834V4.37017C9.66556 4.65102 9.49272 4.90102 9.23162 5.0041C9.15755 5.03311 9.08471 5.06336 9.01187 5.09484C8.75447 5.20656 8.4551 5.15224 8.25634 4.95348L7.76006 4.4572C7.10884 3.80599 6.0527 3.80599 5.40087 4.4572L4.45769 5.40038C3.80648 6.0516 3.80648 7.10774 4.45769 7.75957L4.95397 8.25585C5.15273 8.45461 5.20705 8.75337 5.09533 9.01138C5.06384 9.08422 5.0336 9.15706 5.00459 9.23113C4.9015 9.49223 4.65151 9.66507 4.37066 9.66507H3.66883C2.74787 9.66507 2.00098 10.412 2.00098 11.3329V12.6668C2.00098 13.5878 2.74787 14.3347 3.66883 14.3347H4.37066C4.65151 14.3347 4.9015 14.5075 5.00459 14.7686C5.0336 14.8427 5.06384 14.9155 5.09533 14.9884C5.20705 15.2458 5.15273 15.5451 4.95397 15.7439L4.45769 16.2402C3.80648 16.8914 3.80648 17.9475 4.45769 18.5994L5.40087 19.5425C6.05209 20.1938 7.10823 20.1938 7.76006 19.5425L8.25634 19.0463C8.4551 18.8475 8.75385 18.7932 9.01187 18.9049C9.08471 18.9364 9.15755 18.9666 9.23162 18.9956C9.49272 19.0987 9.66556 19.3487 9.66556 19.6296V20.3314C9.66556 21.2524 10.4124 21.9993 11.3334 21.9993H12.6673C13.5883 21.9993 14.3352 21.2524 14.3352 20.3314V19.6296C14.3352 19.3487 14.508 19.0987 14.7691 18.9956C14.8432 18.9666 14.916 18.9364 14.9888 18.9049C15.2462 18.7932 15.5456 18.8475 15.7444 19.0463L16.2407 19.5425C16.8919 20.1938 17.948 20.1938 18.5998 19.5425L19.543 18.5994C20.1942 17.9481 20.1942 16.892 19.543 16.2402L19.0467 15.7439C18.848 15.5451 18.7937 15.2464 18.9054 14.9884C18.9369 14.9155 18.9671 14.8427 18.9961 14.7686C19.0992 14.5075 19.3492 14.3347 19.6301 14.3347H20.3319C21.2529 14.3347 21.9997 13.5878 21.9997 12.6668V11.3329C21.9997 10.412 21.2529 9.66507 20.3319 9.66507Z" fill="#06AB78"/>
<circle cx="12" cy="12" r="3.75" fill="#06AB78"/>
</svg>