<svg width="24" height="24" viewBox="0 0 24 24" fill="none" xmlns="http://www.w3.org/2000/svg">
<g clip-path="url(#clip0_209_32762)">
<path opacity="0.5" d="M22.4727 4.58482C23.3164 6.04607 22.8157 7.91457 21.3545 8.75823L18.2993 3.46655C19.7606 2.6229 21.6291 3.12356 22.4727 4.58482Z" fill="#06AB78"/>
<path opacity="0.5" d="M15.8202 18.2631L13.4058 15.766L9.26514 17.1487L13.6163 20.4289C14.008 20.7242 14.5383 20.7566 14.963 20.5114L15.5527 20.1709C16.2412 19.7734 16.3729 18.8347 15.8202 18.2631Z" fill="#06AB78"/>
<path fill-rule="evenodd" clip-rule="evenodd" d="M3.6766 14.1904L4.45037 15.5307C5.02661 16.5287 6.22179 16.9887 7.31847 16.6343L12.7006 14.8954L8.43376 7.28916L4.15354 11.1559C3.29835 11.9285 3.10035 13.1924 3.6766 14.1904ZM9.95567 5.91425L14.6419 14.2682L20.6496 12.3271C21.39 12.0879 21.7213 11.227 21.3323 10.5532L16.4281 2.05901C16.0391 1.38523 15.1293 1.2404 14.552 1.76195L9.95567 5.91425Z" fill="#06AB78"/>
</g>
<defs>
<clipPath id="clip0_209_32762">
<rect width="24" height="24" fill="white"/>
</clipPath>
</defs>
</svg>