<svg width="24" height="24" viewBox="0 0 24 24" fill="none" xmlns="http://www.w3.org/2000/svg">
<path d="M3 17.0688C3.49785 12.9725 5.43452 12 11 12C16.5655 12 18.5022 12.9725 19 17.0688C16.8568 18.8949 14.0598 20 11 20C7.94023 20 5.14321 18.8949 3 17.0688Z" fill="#06AB78"/>
<g opacity="0.5">
<path d="M11 10C12.6569 10 14 8.65685 14 7C14 5.34315 12.6569 4 11 4C9.34315 4 8 5.34315 8 7C8 8.65685 9.34315 10 11 10Z" fill="#06AB78"/>
<path d="M19 4C19.5523 4 20 4.44772 20 5V6H21C21.5523 6 22 6.44772 22 7C22 7.55228 21.5523 8 21 8H20V9C20 9.55228 19.5523 10 19 10C18.4477 10 18 9.55228 18 9V8H17C16.4477 8 16 7.55228 16 7C16 6.44772 16.4477 6 17 6H18V5C18 4.44772 18.4477 4 19 4Z" fill="#06AB78"/>
</g>
</svg>