<svg width="48" height="48" viewBox="0 0 48 48" fill="none" xmlns="http://www.w3.org/2000/svg">
<path d="M0 24C0 4.236 4.236 0 24 0C43.764 0 48 4.236 48 24C48 43.764 43.764 48 24 48C4.236 48 0 43.764 0 24Z" fill="white"/>
<path d="M35.3611 37H33.9058C33.7815 37 33.6574 36.9632 33.5508 36.8899L30.1435 34.4119C30.037 34.3385 29.9128 34.3018 29.7885 34.3018H15.8218C14.26 34.2834 13 32.9801 13 31.3833V14.9185C13 13.3032 14.26 12 15.8218 12H27.8719C29.4336 12 30.6936 13.3032 30.6936 14.9185V16.4053C30.6936 16.754 30.9776 17.0477 31.3147 17.0477H33.1782C34.7399 17.0477 36 18.351 36 19.9662V36.3575C35.9822 36.7064 35.6983 37 35.3611 37ZM15.8572 31.9706H30.5162C30.6404 31.9706 30.7647 32.0074 30.8711 32.0807L33.1427 33.7327C33.3912 33.9162 33.7461 33.7328 33.7461 33.4024V20.0029C33.7461 19.6542 33.4622 19.3605 33.125 19.3605H31.2971C30.9598 19.3605 30.6759 19.6542 30.6759 20.0029V28.6116C30.6759 28.9604 30.3919 29.254 30.0548 29.254H18.9097C18.5725 29.254 18.2886 28.9604 18.2886 28.6116V17.6902C18.2886 17.3414 18.5725 17.0477 18.9097 17.0477H27.8365C28.1736 17.0477 28.4575 16.754 28.4575 16.4053V14.9552C28.4575 14.6065 28.1736 14.3128 27.8365 14.3128H15.8572C15.5201 14.3128 15.2361 14.6065 15.2361 14.9552V31.3282C15.2361 31.6952 15.5023 31.9706 15.8572 31.9706ZM20.8264 26.9229H28.1381C28.3155 26.9229 28.4398 26.7761 28.4398 26.6109V19.6725C28.4398 19.489 28.2979 19.3605 28.1381 19.3605H20.8264C20.6489 19.3605 20.5247 19.5073 20.5247 19.6725V26.6109C20.5247 26.7944 20.6667 26.9229 20.8264 26.9229Z" fill="#211F20"/>
</svg>
