<svg width="48" height="48" viewBox="0 0 48 48" fill="none" xmlns="http://www.w3.org/2000/svg">
<path d="M36.1873 1.03238C33.4803 0.407622 29.0305 0 24 0C18.9695 0 14.5197 0.407622 11.8127 1.03238C6.41533 2.16497 2.16497 6.41533 1.03238 11.8127C0.407622 14.5197 0 18.9695 0 24C0 29.0305 0.407622 33.4803 1.03238 36.1873C2.16497 41.5847 6.41533 45.835 11.8127 46.9676C14.5197 47.5924 18.9695 48 24 48C29.0305 48 33.4803 47.5924 36.1873 46.9676C41.5847 45.835 45.835 41.5847 46.9676 36.1873C47.5924 33.4803 48 29.0305 48 24C48 18.9695 47.5924 14.5197 46.9676 11.8127C45.835 6.41533 41.5847 2.16497 36.1873 1.03238Z" fill="white"/>
<g clip-path="url(#clip0_777_12320)">
<path fill-rule="evenodd" clip-rule="evenodd" d="M20.2661 10C18.7183 10.0011 17.4656 11.2572 17.4667 12.805C17.4656 14.3528 18.7194 15.6089 20.2672 15.6101H23.0677V12.8062C23.0688 11.2584 21.815 10.0023 20.2661 10C20.2672 10 20.2672 10 20.2661 10V10ZM20.2661 17.4816H12.8005C11.2527 17.4828 9.99886 18.7388 10 20.2866C9.99772 21.8344 11.2515 23.0905 12.7993 23.0928H20.2661C21.8139 23.0917 23.0677 21.8356 23.0665 20.2878C23.0677 18.7388 21.8139 17.4828 20.2661 17.4816V17.4816Z" fill="#36C5F0"/>
<path fill-rule="evenodd" clip-rule="evenodd" d="M38.0001 20.2866C38.0013 18.7388 36.7475 17.4828 35.1997 17.4816C33.6519 17.4828 32.3981 18.7388 32.3992 20.2866V23.0928H35.1997C36.7475 23.0917 38.0013 21.8356 38.0001 20.2866ZM30.5334 20.2866V12.805C30.5345 11.2584 29.2819 10.0023 27.7341 10C26.1863 10.0011 24.9325 11.2572 24.9336 12.805V20.2866C24.9313 21.8344 26.1851 23.0905 27.7329 23.0928C29.2807 23.0917 30.5345 21.8356 30.5334 20.2866Z" fill="#2EB67D"/>
<path fill-rule="evenodd" clip-rule="evenodd" d="M27.7321 38.0561C29.2799 38.055 30.5337 36.7989 30.5326 35.2511C30.5337 33.7033 29.2799 32.4472 27.7321 32.4461H24.9316V35.2511C24.9305 36.7978 26.1843 38.0538 27.7321 38.0561ZM27.7321 30.5734H35.1988C36.7466 30.5722 38.0004 29.3161 37.9993 27.7683C38.0016 26.2205 36.7478 24.9644 35.2 24.9622H27.7332C26.1854 24.9633 24.9316 26.2194 24.9328 27.7672C24.9316 29.3161 26.1843 30.5722 27.7321 30.5734V30.5734Z" fill="#ECB22E"/>
<path fill-rule="evenodd" clip-rule="evenodd" d="M10 27.7682C9.99886 29.316 11.2527 30.5721 12.8005 30.5732C14.3483 30.5721 15.6021 29.316 15.6009 27.7682V24.9631H12.8005C11.2527 24.9643 9.99886 26.2204 10 27.7682ZM17.4667 27.7682V35.2498C17.4645 36.7976 18.7183 38.0537 20.2661 38.056C21.8139 38.0548 23.0677 36.7987 23.0665 35.2509V27.7705C23.0688 26.2227 21.815 24.9666 20.2672 24.9643C18.7183 24.9643 17.4656 26.2204 17.4667 27.7682C17.4667 27.7693 17.4667 27.7682 17.4667 27.7682Z" fill="#E01E5A"/>
</g>
<defs>
<clipPath id="clip0_777_12320">
<rect width="28" height="28.0561" fill="white" transform="translate(10 10)"/>
</clipPath>
</defs>
</svg>
