<svg width="48" height="48" viewBox="0 0 48 48" fill="none" xmlns="http://www.w3.org/2000/svg">
<path d="M36.1873 1.03238C33.4803 0.407622 29.0305 0 24 0C18.9695 0 14.5197 0.407622 11.8127 1.03238C6.41533 2.16497 2.16497 6.41533 1.03238 11.8127C0.407622 14.5197 0 18.9695 0 24C0 29.0305 0.407622 33.4803 1.03238 36.1873C2.16497 41.5847 6.41533 45.835 11.8127 46.9676C14.5197 47.5924 18.9695 48 24 48C29.0305 48 33.4803 47.5924 36.1873 46.9676C41.5847 45.835 45.835 41.5847 46.9676 36.1873C47.5924 33.4803 48 29.0305 48 24C48 18.9695 47.5924 14.5197 46.9676 11.8127C45.835 6.41533 41.5847 2.16497 36.1873 1.03238Z" fill="white"/>
<path d="M19.1445 33.5309L17.9785 33.0029C17.6815 33.8279 16.8455 34.3559 15.8115 34.3559C14.3155 34.3559 13.2705 33.1899 13.2705 31.6389C13.2705 30.0879 14.3155 28.9439 15.8115 28.9439C16.7795 28.9439 17.5825 29.4279 17.9125 30.1649L19.0675 29.6039C18.6495 28.4709 17.3295 27.6899 15.8115 27.6899C13.5895 27.6899 11.9395 29.4059 11.9395 31.6389C11.9395 33.8829 13.5895 35.6099 15.8115 35.6099C17.3845 35.6099 18.7485 34.7629 19.1445 33.5309Z" fill="black"/>
<path d="M26.1131 35.4999L24.0121 32.2659C24.9141 31.9579 25.4751 31.1549 25.4751 30.0879C25.4751 28.8009 24.3971 27.7999 23.1101 27.7999H20.2171V35.4999H21.5041V32.4089H22.6371L24.5511 35.4999H26.1131ZM21.5041 29.0429H23.0661C23.7041 29.0429 24.1771 29.4829 24.1771 30.0879C24.1771 30.7149 23.7041 31.1769 23.0661 31.1769H21.5041V29.0429Z" fill="black"/>
<path d="M26.9525 35.4999H28.2395V30.3299L30.4945 35.4999H31.4405L33.7395 30.3299V35.4999H35.0265V27.7999H33.7065L31.0665 33.6079L28.5035 27.7999H26.9525V35.4999Z" fill="black"/>
<path d="M41.0275 16.5425V24.7296L39.8945 25.8356V17.8238L41.0275 16.5425V16.5425Z" fill="#E79225"/>
<path d="M33.6031 16.5495L32.4297 17.8241L32.4904 17.905L39.848 17.878L39.9154 17.8241L41.0282 16.5427L33.6031 16.5495V16.5495Z" fill="#FFF16D"/>
<rect x="32.4297" y="17.824" width="7.48576" height="8.01853" fill="url(#paint0_linear_777_12321)"/>
<path fill-rule="evenodd" clip-rule="evenodd" d="M38.1155 19.7122C38.4055 20.0022 38.628 20.3394 38.7764 20.7103C38.9248 21.0812 38.999 21.4858 38.999 21.9377C38.999 22.3693 38.9248 22.7807 38.7764 23.1516C38.628 23.5225 38.4055 23.8597 38.1155 24.1564C37.839 24.4329 37.522 24.642 37.1781 24.7836C36.8342 24.9252 36.4632 24.9994 36.0654 24.9994C35.654 24.9994 35.2696 24.9252 34.9256 24.7836C34.5817 24.642 34.2715 24.4329 34.0017 24.1564C33.7117 23.8597 33.4959 23.5225 33.3475 23.1448C33.1992 22.7672 33.125 22.3626 33.125 21.9309C33.125 21.4858 33.1924 21.0812 33.3408 20.7103C33.4892 20.3394 33.705 20.0022 33.995 19.7122C34.2715 19.4289 34.5817 19.2131 34.9324 19.0715C35.2763 18.9299 35.654 18.8557 36.0586 18.8557C36.4632 18.8557 36.8342 18.9299 37.1781 19.0715C37.5288 19.2131 37.839 19.4289 38.1155 19.7122ZM36.0586 23.873C36.5576 23.873 36.942 23.6976 37.232 23.3537C37.522 23.0097 37.6636 22.5309 37.6636 21.924C37.6636 21.3035 37.5152 20.8247 37.232 20.474C36.942 20.1301 36.5576 19.9547 36.0586 19.9547C35.5528 19.9547 35.1684 20.1233 34.8784 20.474C34.5951 20.8247 34.4468 21.3035 34.4468 21.924C34.4468 22.5309 34.5884 23.0097 34.8784 23.3537C35.1684 23.6976 35.5595 23.873 36.0586 23.873Z" fill="white"/>
<path d="M31.6941 15.8745V15.915L32.6517 23.2726L32.092 24.8237L32.0178 24.7697L31.0332 17.7156L31.0534 17.6212L31.6671 15.915L31.6941 15.8745V15.8745Z" fill="#009ADA"/>
<path d="M24.323 16.8996L31.6942 15.8745L31.0737 17.6414L30.986 17.7358L24.0938 18.7474L24.1275 17.4863L24.323 16.8996V16.8996Z" fill="#91C9ED"/>
<path d="M31.0743 17.6416L32.0926 24.8239L24.8294 25.8422L23.8516 18.9027L24.2764 18.5723L31.0743 17.6416V17.6416Z" fill="url(#paint1_linear_777_12321)"/>
<path d="M29.8407 19.0171C29.807 18.7946 29.7328 18.626 29.6114 18.5113C29.5102 18.4237 29.3889 18.3765 29.2472 18.3765C29.2135 18.3765 29.173 18.3765 29.1326 18.3832C28.9438 18.4102 28.8021 18.4979 28.7145 18.6395C28.647 18.7406 28.62 18.8688 28.62 19.0171C28.62 19.0711 28.6268 19.1318 28.6335 19.1925L28.8965 21.0605L26.8059 21.3708L26.5429 19.5027C26.5092 19.2869 26.435 19.1183 26.3136 19.0036C26.2125 18.9092 26.0911 18.862 25.9562 18.862C25.9225 18.862 25.8888 18.862 25.855 18.8688C25.6595 18.8957 25.5111 18.9834 25.4167 19.125C25.3492 19.2262 25.3223 19.3543 25.3223 19.5027C25.3223 19.5567 25.329 19.6173 25.3358 19.6848L26.0506 24.5472C26.0843 24.7697 26.1585 24.9383 26.2934 25.053C26.3945 25.1406 26.5159 25.1811 26.6643 25.1811C26.7048 25.1811 26.7452 25.1811 26.7857 25.1743C26.9678 25.1474 27.1027 25.0597 27.1903 24.9181C27.251 24.8169 27.278 24.6955 27.278 24.5539C27.278 24.4999 27.2713 24.4393 27.2645 24.3786L26.9745 22.4565L29.0651 22.1463L29.3551 24.0683C29.3889 24.2909 29.463 24.4595 29.5912 24.5674C29.6923 24.6551 29.8137 24.7023 29.9553 24.7023C29.9891 24.7023 30.0295 24.7023 30.07 24.6955C30.2588 24.6685 30.4004 24.5809 30.4881 24.4393C30.5488 24.3381 30.5825 24.2167 30.5825 24.0683C30.5825 24.0144 30.5758 23.9537 30.569 23.893L29.8407 19.0171V19.0171Z" fill="white"/>
<path d="M17.4261 14.0005L14.8027 20.2319L15.1602 22.9699L15.1804 22.9632L18.1275 16.3339L18.114 16.1923L17.4801 14.0882L17.4261 14.0005V14.0005Z" fill="#66BF6B"/>
<path d="M17.4258 13.9998L18.1069 16.2859L18.1204 16.3332L24.6081 19.2398L24.6283 19.2263L24.0753 17.0413L17.4258 13.9998V13.9998Z" fill="#98D0A0"/>
<path d="M18.1073 16.2859L24.6286 19.2262L21.6815 25.9095L15.1602 22.9691L18.1073 16.2859V16.2859Z" fill="url(#paint2_linear_777_12321)"/>
<path fill-rule="evenodd" clip-rule="evenodd" d="M22.0588 18.7948C22.3151 19.0645 22.5106 19.3882 22.6523 19.7659C22.7871 20.1233 22.8478 20.4875 22.8411 20.8584V20.9798C22.8209 21.3912 22.7264 21.8026 22.5511 22.2207C22.3758 22.6388 22.1397 22.9962 21.8565 23.293C21.5732 23.5964 21.236 23.8325 20.8516 24.0011C20.4875 24.1562 20.1165 24.2371 19.7456 24.2371H19.7389C19.368 24.2371 19.0038 24.1629 18.6464 24.0078C18.2687 23.8527 17.9517 23.6369 17.6955 23.3672C17.4392 23.0974 17.2436 22.7804 17.1088 22.4095C16.9806 22.0588 16.9199 21.7014 16.9199 21.3372V21.1956C16.9402 20.7842 17.0346 20.3661 17.2099 19.9547C17.3853 19.5366 17.6145 19.1724 17.8978 18.8757C18.181 18.5722 18.5115 18.3429 18.8959 18.1743C19.2601 18.0125 19.631 17.9248 20.0086 17.9248H20.0289C20.3998 17.9248 20.764 17.999 21.1281 18.1541C21.4923 18.3092 21.8025 18.525 22.0588 18.7948ZM20.3795 22.9019C20.7774 22.6861 21.1078 22.2882 21.3506 21.7082C21.5192 21.3103 21.6001 20.9462 21.6001 20.609C21.6001 20.4471 21.5799 20.292 21.5395 20.1504C21.4181 19.7053 21.1348 19.3951 20.683 19.1995C20.4672 19.1118 20.2649 19.0646 20.0625 19.0646C19.84 19.0646 19.6174 19.1186 19.4016 19.24C19.0037 19.4625 18.6733 19.8672 18.4238 20.4606C18.2619 20.845 18.181 21.2024 18.181 21.5262C18.181 21.688 18.2012 21.8431 18.2417 21.9915C18.3631 22.4366 18.6463 22.7468 19.1049 22.9424C19.314 23.0301 19.523 23.0773 19.7186 23.0773C19.9411 23.0773 20.1637 23.0166 20.3795 22.9019Z" fill="white"/>
<path d="M14.2819 15.0586L15.3474 22.1937L14.8619 24.7024L14.7944 24.6147L13.7559 17.7224V17.5876L14.2144 15.18L14.2819 15.0586V15.0586Z" fill="#760D16"/>
<path d="M6.5 18.7495L7.00579 16.2272L14.2825 15.0605L13.7902 17.63V17.7986L6.58767 18.8169L6.5 18.7495V18.7495Z" fill="#EF463E"/>
<path d="M13.7902 17.6284L14.8625 24.7028L7.65996 25.829L6.5 18.7479L13.7902 17.6284V17.6284Z" fill="url(#paint3_linear_777_12321)"/>
<path d="M13.0151 23.5761C12.9612 23.5086 12.8802 23.4614 12.7858 23.4277C12.6914 23.394 12.5768 23.3805 12.4351 23.3805C12.307 23.3805 12.1586 23.394 11.9968 23.421L10.095 23.7447C10.1152 23.5963 10.1894 23.4075 10.3175 23.1714C10.4592 22.9084 10.675 22.5915 10.9515 22.2273V22.2273C11.0459 22.0992 11.1201 22.0047 11.174 21.9373C11.2077 21.8901 11.2617 21.8294 11.3291 21.7417C11.7675 21.1685 12.0305 20.7032 12.1384 20.339C12.1991 20.1299 12.2328 19.9209 12.2463 19.7118C12.2531 19.6511 12.2531 19.5972 12.2531 19.5432C12.2531 19.3948 12.2396 19.2465 12.2126 19.0981C12.1924 18.9632 12.1586 18.8553 12.1114 18.7677C12.0642 18.68 12.0103 18.6125 11.9428 18.5721C11.8687 18.5249 11.754 18.5046 11.6124 18.5046C11.4977 18.5046 11.3561 18.5181 11.1875 18.5451L8.98899 18.9228C8.72598 18.97 8.52366 19.0442 8.40227 19.1655C8.30111 19.26 8.25391 19.3813 8.25391 19.5162C8.25391 19.5499 8.25391 19.5904 8.26065 19.6309C8.29437 19.8197 8.38878 19.9546 8.5439 20.022C8.63831 20.0625 8.74621 20.0827 8.88109 20.0827C8.96876 20.0827 9.06992 20.076 9.17782 20.0557L11.0122 19.732C11.0122 19.7658 11.0189 19.7995 11.0189 19.8264C11.0189 19.9411 10.9987 20.0557 10.9582 20.1636C10.9043 20.3188 10.7694 20.5346 10.5468 20.8111C10.4861 20.8852 10.3917 21.0066 10.2636 21.1617C9.76455 21.762 9.41386 22.2745 9.19806 22.6994V22.6994C9.04295 22.9961 8.94179 23.2793 8.88109 23.5693C8.84737 23.7379 8.82714 23.893 8.82714 24.0481C8.82714 24.156 8.83388 24.264 8.85412 24.3651C8.88109 24.5135 8.91481 24.6349 8.96202 24.7293C9.00923 24.8237 9.07667 24.8979 9.15085 24.9383C9.22503 24.9788 9.32619 24.9923 9.47456 24.9923C9.65664 24.9923 9.90617 24.9653 10.2231 24.9114L12.2193 24.5674C12.57 24.5067 12.8195 24.4191 12.9612 24.3044C13.0758 24.21 13.1365 24.0819 13.1365 23.9335C13.1365 23.893 13.1298 23.8526 13.123 23.8121C13.1095 23.7244 13.0758 23.6435 13.0151 23.5761V23.5761V23.5761Z" fill="white"/>
<defs>
<linearGradient id="paint0_linear_777_12321" x1="32.5959" y1="17.9387" x2="32.5959" y2="25.6004" gradientUnits="userSpaceOnUse">
<stop offset="0.005618" stop-color="#FFE513"/>
<stop offset="1" stop-color="#FDB924"/>
</linearGradient>
<linearGradient id="paint1_linear_777_12321" x1="21.162" y1="22.4564" x2="28.645" y2="28.5854" gradientUnits="userSpaceOnUse">
<stop offset="0.005618" stop-color="#008CD2"/>
<stop offset="1" stop-color="#00649D"/>
</linearGradient>
<linearGradient id="paint2_linear_777_12321" x1="16.5924" y1="18.9592" x2="16.5924" y2="25.6717" gradientUnits="userSpaceOnUse">
<stop stop-color="#26A146"/>
<stop offset="1" stop-color="#008A52"/>
</linearGradient>
<linearGradient id="paint3_linear_777_12321" x1="6.46194" y1="18.7311" x2="7.57354" y2="25.9853" gradientUnits="userSpaceOnUse">
<stop stop-color="#D92231"/>
<stop offset="1" stop-color="#BA2234"/>
</linearGradient>
</defs>
</svg>
